<svg width="50" height="42" fill="none" xmlns="http://www.w3.org/2000/svg"><path d="M27 19.417v21M41 29c0 2.738-2.238 5-5 5s-5-2.262-5-5 5-12 5-12 5 9.262 5 12zm-5 5v7m6.477-15.926C43.295 23.346 44.001 22 44.001 22s4 7.627 4 9.882-1.79 4.118-4 4.118a3.926 3.926 0 01-2.767-1.151M44 36v5m-31-.583v-21m-9 21v-11m14 11v-6h4v6m-6-16h3m2 0h3m-8 4h3m-12 4h3m-3 4h3m11-8h3m-14-6l10-10 10 10m-29 10l7-7 5 5m-13 10h48m-14-34h-6.901c-.512-1-1.715-2.031-3.119-2.031-.445 0-.87.106-1.259.263C21.939 2.564 19.933 1 17.575 1c-3.034 0-5.493 3.418-5.499 5.418H4m3 5.999H0m9 0h2m25-6h2m2 0h2m-17 6v5"/></svg>