<svg width="44" height="48" fill="none" xmlns="http://www.w3.org/2000/svg"><g clip-path="url(#clip0)" fill="#C22353"><path d="M43.594 15.932c-.253-2.451-2.078-5.668-4.004-7.149 0 0-2.94-2.196-6.59-4.34C29.35 2.247 26.005.766 26.005.766 24.889.256 23.419 0 22 0c-1.47 0-2.94.255-4.005.766 0 0-3.295 1.48-6.995 3.677-3.65 2.195-6.59 4.34-6.59 4.34-1.977 1.48-3.75 4.698-4.004 7.149 0 0-.406 3.676-.406 8.068 0 4.34.406 8.068.406 8.068.253 2.451 2.078 5.668 4.004 7.149 0 0 2.94 2.196 6.59 4.392a71.16 71.16 0 006.995 3.676c1.116.51 2.586.766 4.005.766 1.47 0 2.94-.255 4.005-.766 0 0 3.294-1.48 6.995-3.676a88.995 88.995 0 006.59-4.392c1.977-1.48 3.751-4.698 4.004-7.149 0 0 .406-3.676.406-8.068 0-4.34-.406-8.068-.406-8.068zm-2.027 15.88c-.203 1.941-1.724 4.596-3.194 5.72-.05 0-2.89 2.145-6.387 4.238-3.498 2.094-6.742 3.575-6.793 3.575-.81.357-1.976.561-3.193.561s-2.383-.204-3.194-.561c-.05 0-3.244-1.481-6.792-3.575-3.498-2.093-6.387-4.238-6.387-4.238-1.521-1.123-2.991-3.83-3.194-5.72-.05 0-.405-3.625-.405-7.812s.354-7.813.354-7.813c.203-1.94 1.724-4.596 3.194-5.719.05 0 2.89-2.145 6.387-4.238 3.498-2.094 6.742-3.575 6.793-3.575.861-.408 2.027-.612 3.244-.612s2.383.204 3.194.561c.05 0 3.244 1.481 6.792 3.575a87.03 87.03 0 016.387 4.238c1.521 1.123 2.991 3.83 3.194 5.72 0 .05.355 3.625.355 7.812.05 4.238-.355 7.864-.355 7.864z"/><path d="M24.23 24.664a4.722 4.722 0 001.369-3.32c0-2.553-1.977-4.595-4.41-4.595s-4.41 2.043-4.41 4.596c0 1.327.507 2.502 1.368 3.319-1.571.664-2.889 1.838-3.599 3.37a2.234 2.234 0 00.102 2.043c.202.306.608.97 2.686 1.634.71.255 2.18.612 3.752.612h.05c2.078 0 5.627-.868 6.54-2.4.405-.663.405-1.43.1-2.093-.709-1.379-1.976-2.502-3.548-3.166zm-3.041-5.822c1.318 0 2.382 1.124 2.382 2.554 0 1.43-1.064 2.553-2.382 2.553s-2.383-1.123-2.383-2.553 1.065-2.553 2.383-2.553zm0 11.54c-.05 0-.05 0 0 0-2.484 0-4.917-1.123-4.816-1.429.811-1.685 2.687-2.86 4.867-2.86 2.129 0 4.004 1.124 4.815 2.758.102.306-2.331 1.48-4.866 1.532z"/><path d="M29.908 11.54V9.447c0-.715-.305-1.379-.811-1.787-.507-.409-1.217-.511-1.927-.307l-14.75 4.188c-.305.102-.508.306-.66.561a2.084 2.084 0 00-.608 1.481v22.979a2.04 2.04 0 002.028 2.042H29.4a2.04 2.04 0 002.028-2.042V13.583c0-1.021-.659-1.838-1.52-2.043zm-2.18-2.246h.152s.05.05.05.153v2.042h-7.907l7.705-2.195zM29.4 36.51H13.18V13.53H29.4v22.98z"/></g><defs><clipPath id="clip0"><path fill="#fff" d="M0 0h44v48H0z"/></clipPath></defs></svg>