<svg width="520" height="340" fill="none" xmlns="http://www.w3.org/2000/svg"><path d="M500.451 284.915c6.251 0 11.443 2.649 15.682 8.053 2.49 3.603 3.762 7.258 3.762 10.86v1.272c0 4.927-2.067 9.485-6.093 13.616-2.967 2.596-5.933 4.185-8.847 4.821-1.537.318-2.702.476-3.55.476h-2.172c-3.338 0-6.782-1.165-10.384-3.549-3.549-2.595-5.987-6.04-7.312-10.277-.529-1.856-.794-3.55-.794-5.087v-1.272c0-4.874 1.96-9.377 5.933-13.509 3.92-3.603 8.53-5.404 13.775-5.404zM480.742 96.787h39.152l.106.16-4.61 179.546-.158.158h-29.827l-.159-.158-4.662-179.547.158-.16zM230.309 208.859c0-27.398-11.104-52.202-29.058-70.155-17.953-17.953-42.756-29.058-70.154-29.058-27.399 0-52.203 11.105-70.155 29.058-17.954 17.953-29.058 42.757-29.058 70.155 0 27.399 11.104 52.202 29.058 70.154 17.952 17.954 42.756 29.058 70.155 29.058 27.398 0 52.201-11.104 70.154-29.058 17.954-17.952 29.058-42.755 29.058-70.154zM217.1 109.918a7.488 7.488 0 012.338-2.716l20.998-14.95c2.852-2.03 6.597-1.865 9.258.407 1.051.896 2.314 1.455 3.77 1.665 2.115.305 4.048-.212 5.727-1.532L373.167 3.235c3.36-2.64 7.225-3.674 11.455-3.066 4.229.609 7.644 2.692 10.123 6.173l14.35 20.154c2.478 3.481 3.327 7.39 2.519 11.586-.808 4.196-3.05 7.51-6.644 9.821l-122.314 78.648c-3.04 1.955-4.255 5.682-2.951 9.053 1.213 3.134.204 6.823-2.655 8.858l-20.627 14.687a7.495 7.495 0 01-3.446 1.337c5.946 14.967 9.216 31.288 9.216 48.374 0 36.2-14.673 68.973-38.398 92.698-23.724 23.724-56.499 38.398-92.698 38.398-36.199 0-68.973-14.673-92.698-38.398C14.675 277.833 0 245.059 0 208.859c0-36.2 14.674-68.973 38.398-92.698 23.725-23.724 56.499-38.398 92.699-38.398 32.907 0 62.982 12.128 86.003 32.155zm-95.934 24.174a9.533 9.533 0 012.466 18.906c-8.993 1.197-17.458 4.562-24.765 9.656-.19.133-.383.256-.58.372a56.345 56.345 0 00-17.023 19.531c-2.456 4.663-8.227 6.454-12.89 3.998-4.664-2.456-6.454-8.227-3.999-12.891a75.381 75.381 0 0122.919-26.197c.212-.177.432-.347.663-.507 9.708-6.765 21.055-11.25 33.209-12.868z" fill="#0061D9"/><path d="M302.415 176.22h34.222v96.927l70.994-96.927h32.308v148.791H405.93v-96.714l-70.995 96.714h-32.521V176.22h.001zm27.42-42.087h23.594c.282 10.346 6.164 15.517 17.642 15.517 5.667 0 9.991-1.309 12.966-3.932 2.976-2.621 4.534-6.483 4.677-11.584h23.594c-.143 10.627-3.613 18.705-10.415 24.231-6.801 5.527-17.079 8.291-30.821 8.291-27.21-.002-40.955-10.842-41.237-32.523z" fill="#0061D9"/></svg>