<svg width="20" height="20" xmlns="http://www.w3.org/2000/svg"><g clip-path="url(#clip0_1265_14473)"><path d="M9.016 14.088c-1.55-.162-2.948-.544-4.145-1.48-.148-.116-.302-.229-.437-.359-.524-.503-.577-1.079-.162-1.673.354-.508.95-.644 1.568-.352.12.056.234.127.344.203 2.23 1.533 5.294 1.575 7.533.069.222-.17.46-.309.734-.38.534-.137 1.033.06 1.32.527.327.534.323 1.055-.08 1.47-.62.635-1.365 1.095-2.192 1.416-.782.303-1.64.456-2.487.557.128.14.188.208.268.288 1.152 1.157 2.308 2.31 3.456 3.47.391.396.473.886.258 1.346-.236.503-.763.833-1.28.798-.327-.023-.582-.186-.81-.414-.868-.875-1.754-1.733-2.605-2.624-.248-.26-.367-.21-.586.015-.874.9-1.763 1.786-2.656 2.667-.402.396-.88.467-1.345.241-.495-.24-.81-.745-.785-1.252.017-.343.186-.606.421-.84 1.14-1.139 2.276-2.28 3.413-3.42.076-.076.146-.156.255-.273z"/><path d="M9.96 10.123c-2.767-.01-5.035-2.302-5.019-5.073A5.07 5.07 0 0110.021 0c2.798.008 5.045 2.297 5.03 5.127-.014 2.765-2.297 5.006-5.092 4.996zm2.513-5.066A2.465 2.465 0 0010 2.585a2.469 2.469 0 00-2.479 2.502 2.465 2.465 0 002.492 2.453 2.46 2.46 0 002.46-2.483z"/></g><defs><clipPath id="clip0_1265_14473"><path fill="#fff" d="M0 0h20v20H0z"/></clipPath></defs></svg>