<svg width="40" height="44" fill="none" xmlns="http://www.w3.org/2000/svg"><path d="M7 21V3a2 2 0 012-2h22l8 8v32a2 2 0 01-2 2H9a2 2 0 01-2-2v-5" fill="#F5F5F7"/><path d="M7 21V3a2 2 0 012-2h22l8 8v32a2 2 0 01-2 2H9a2 2 0 01-2-2v-5" stroke="#D9D9DE" stroke-width="2" stroke-miterlimit="10"/><path d="M36 10h-6V4" stroke="#D9D9DE" stroke-width="2" stroke-miterlimit="10"/><path d="M27 36H2a2 2 0 01-2-2V23a2 2 0 012-2h25a2 2 0 012 2v11a2 2 0 01-2 2z" fill="#0061D9"/><path d="M5.646 25.64h1.476v.936c.16-.288.412-.54.756-.756.344-.216.78-.324 1.308-.324.848 0 1.508.264 1.98.792.48.52.72 1.304.72 2.352v.24c0 1.096-.244 1.916-.732 2.46-.48.536-1.136.804-1.968.804a2.36 2.36 0 01-1.152-.276 2.474 2.474 0 01-.804-.744V34.4H5.646v-8.76zm3.168 5.16c.416 0 .764-.156 1.044-.468.28-.32.42-.804.42-1.452v-.24c0-.6-.136-1.048-.408-1.344-.272-.304-.624-.456-1.056-.456-.456 0-.836.132-1.14.396-.296.256-.444.644-.444 1.164v.72c0 .568.144.992.432 1.272.296.272.68.408 1.152.408zm6.615 1.344c-.832 0-1.492-.268-1.98-.804-.48-.544-.72-1.364-.72-2.46v-.24c0-1.024.244-1.804.732-2.34.488-.536 1.144-.804 1.968-.804.432 0 .812.096 1.14.288.336.184.608.428.816.732V23.6h1.584V32h-1.476v-.936c-.16.288-.412.54-.756.756-.344.216-.78.324-1.308.324zM15.8 30.8c.472 0 .852-.136 1.14-.408.296-.28.444-.704.444-1.272v-.72c0-.52-.152-.908-.456-1.164-.296-.264-.672-.396-1.128-.396-.432 0-.784.152-1.056.456-.272.296-.408.744-.408 1.344v.24c0 .648.14 1.132.42 1.452.28.312.628.468 1.044.468zm4.97-3.84h-.78v-1.32h.78v-.24c0-.608.168-1.072.504-1.392.344-.32.936-.48 1.776-.48.12 0 .268.004.444.012.184 0 .336.008.456.024v1.344a3.009 3.009 0 00-.396-.024 6.558 6.558 0 00-.384-.012c-.304 0-.516.052-.636.156-.12.104-.18.268-.18.492v.12h1.476v1.32h-1.476V32h-1.584v-5.04z" fill="#fff"/></svg>