<svg width="50" height="42" fill="none" xmlns="http://www.w3.org/2000/svg"><path d="M27 19.417v21M41 29c0 2.738-2.238 5-5 5s-5-2.262-5-5 5-12 5-12 5 9.262 5 12zM36 34v7M42.477 25.074C43.295 23.346 44.001 22 44.001 22s4 7.627 4 9.882-1.79 4.118-4 4.118a3.926 3.926 0 01-2.767-1.151M44 36v5M13 40.417v-21M4 40.417v-11M18 40.417v-6h4v6M16 24.417h3M21 24.417h3M16 28.417h3M7 32.417h3M7 36.417h3M21 28.417h3M10 22.417l10-10 10 10M1 32.417l7-7 5 5M0 40.417h48M34 6.417h-6.901c-.512-1-1.715-2.031-3.119-2.031-.445 0-.87.106-1.259.263C21.939 2.564 19.933 1 17.575 1c-3.034 0-5.493 3.418-5.499 5.418H4M7 12.417H0M9 12.417h2M36 6.417h2M40 6.417h2M25 12.417v5"/></svg>