<svg width="20" height="20" xmlns="http://www.w3.org/2000/svg"><g clip-path="url(#clip0)"><path d="M20.557 4.12a8.199 8.199 0 01-2.357.646 4.116 4.116 0 001.804-2.27c-.793.47-1.67.812-2.606.996a4.103 4.103 0 00-6.992 3.742A11.648 11.648 0 011.95 2.947a4.101 4.101 0 001.27 5.478 4.083 4.083 0 01-1.859-.513v.052a4.106 4.106 0 003.291 4.023 4.108 4.108 0 01-1.853.07 4.107 4.107 0 003.833 2.85 8.23 8.23 0 01-6.074 1.698 11.61 11.61 0 006.29 1.844c7.546 0 11.674-6.252 11.674-11.674 0-.178-.004-.355-.012-.53a8.33 8.33 0 002.048-2.125z"/></g><defs><clipPath id="clip0"><path fill="#fff" d="M0 0h20v20H0z"/></clipPath></defs></svg>