<svg width="520" height="340" viewBox="0 0 520 340" fill="none" xmlns="http://www.w3.org/2000/svg">
<path d="M500.451 284.915C506.702 284.915 511.894 287.564 516.133 292.968C518.623 296.571 519.895 300.226 519.895 303.828V305.1C519.895 310.027 517.828 314.585 513.802 318.716C510.835 321.312 507.869 322.901 504.955 323.537C503.418 323.855 502.253 324.013 501.405 324.013H499.233C495.895 324.013 492.451 322.848 488.849 320.464C485.3 317.869 482.862 314.424 481.537 310.187C481.008 308.331 480.743 306.637 480.743 305.1V303.828C480.743 298.954 482.703 294.451 486.676 290.319C490.596 286.716 495.206 284.915 500.451 284.915ZM480.742 96.7868H519.894L520 96.9463L515.39 276.493L515.232 276.651H485.405L485.246 276.493L480.584 96.9463L480.742 96.7868ZM230.309 208.859C230.309 181.461 219.205 156.657 201.251 138.704C183.298 120.751 158.495 109.646 131.097 109.646C103.698 109.646 78.8944 120.751 60.9417 138.704C42.9883 156.657 31.8837 181.461 31.8837 208.859C31.8837 236.258 42.9883 261.061 60.9417 279.013C78.8944 296.967 103.698 308.071 131.097 308.071C158.495 308.071 183.298 296.967 201.251 279.013C219.205 261.061 230.309 236.258 230.309 208.859ZM217.1 109.918C217.632 108.869 218.417 107.93 219.438 107.202L240.436 92.252C243.288 90.2217 247.033 90.3865 249.694 92.6585C250.745 93.5554 252.008 94.1144 253.464 94.3242C255.579 94.6292 257.512 94.1121 259.191 92.792L373.167 3.23461C376.527 0.59422 380.392 -0.439206 384.622 0.16941C388.851 0.778026 392.266 2.8609 394.745 6.34175L409.095 26.4963C411.573 29.9771 412.422 33.8866 411.614 38.0821C410.806 42.2783 408.564 45.5922 404.97 47.9031L282.656 126.551C279.616 128.506 278.401 132.233 279.705 135.604C280.918 138.738 279.909 142.427 277.05 144.462L256.423 159.149C255.367 159.9 254.182 160.339 252.977 160.486C258.923 175.453 262.193 191.774 262.193 208.86C262.193 245.06 247.52 277.833 223.795 301.558C200.071 325.282 167.296 339.956 131.097 339.956C94.8984 339.956 62.1239 325.283 38.3993 301.558C14.6747 277.833 0 245.059 0 208.859C0 172.659 14.6739 139.886 38.3985 116.161C62.1231 92.4373 94.8969 77.7626 131.097 77.7626C164.004 77.7634 194.079 89.8907 217.1 109.918ZM121.166 134.092C126.387 133.411 131.171 137.091 131.852 142.312C132.533 147.532 128.853 152.317 123.632 152.998C114.639 154.195 106.174 157.56 98.8673 162.654C98.6767 162.787 98.4837 162.91 98.2877 163.026C91.2825 168.043 85.4168 174.687 81.264 182.557C78.8082 187.22 73.037 189.011 68.3732 186.555C63.7095 184.099 61.9202 178.328 64.3753 173.664C69.9352 163.127 77.835 154.213 87.2937 147.467C87.5057 147.29 87.7262 147.12 87.9572 146.96C97.6646 140.195 109.012 135.71 121.166 134.092Z" fill="#0061D9"/>
<path d="M302.415 176.22H336.637V273.147L407.631 176.22H439.939V325.011H405.93V228.297L334.935 325.011H302.414V176.22H302.415ZM329.835 134.133H353.429C353.711 144.479 359.593 149.65 371.071 149.65C376.738 149.65 381.062 148.341 384.037 145.718C387.013 143.097 388.571 139.235 388.714 134.134H412.308C412.165 144.761 408.695 152.839 401.893 158.365C395.092 163.892 384.814 166.656 371.072 166.656C343.862 166.654 330.117 155.814 329.835 134.133Z" fill="#0061D9"/>
</svg>
