<svg width="16" height="16" viewBox="0 0 16 16" fill="none" xmlns="http://www.w3.org/2000/svg">
	<path d="M9.80339 14.0357C11.0532 15.1205 12.9463 14.9872 14.0316 13.738C15.117 12.4887 14.9836 10.5966 13.7338 9.51174C12.4839 8.42691 10.5909 8.56021 9.50552 9.80947C8.42018 11.0587 8.55354 12.9509 9.80339 14.0357Z" stroke-width="2" stroke-miterlimit="10" stroke-linejoin="round"/>
	<path d="M2.26171 6.49251C3.5108 7.5782 5.40254 7.445 6.48702 6.19499C7.57149 4.94498 7.43804 3.05152 6.18894 1.96582C4.93984 0.880129 3.0481 1.01333 1.96363 2.26334C0.879153 3.51335 1.01261 5.40682 2.26171 6.49251Z" stroke-width="2" stroke-miterlimit="10" stroke-linejoin="round"/>
	<path d="M7.14498 5.93405L9.30876 6.48955L10.1624 8.55304" stroke-width="2" stroke-miterlimit="10" stroke-linejoin="round"/>
</svg>
