<svg width="20" height="20" viewBox="0 0 20 20" xmlns="http://www.w3.org/2000/svg">
<path d="M14.0419 0H5.95811C2.67279 0 0 2.67279 0 5.95811V14.0419C0 17.3272 2.67279 20 5.95811 20H14.0419C17.3272 20 20 17.3272 20 14.0419V5.95811C20 2.67279 17.3272 0 14.0419 0ZM17.988 14.0419C17.988 16.2212 16.2212 17.988 14.0419 17.988H5.95811C3.77875 17.988 2.012 16.2212 2.012 14.0419V5.95811C2.012 3.77871 3.77875 2.012 5.95811 2.012H14.0419C16.2212 2.012 17.988 3.77871 17.988 5.95811V14.0419Z" />
<path d="M10.0008 4.82715C7.1486 4.82715 4.82812 7.14762 4.82812 9.99982C4.82812 12.852 7.1486 15.1725 10.0008 15.1725C12.8531 15.1725 15.1735 12.8521 15.1735 9.99982C15.1735 7.14759 12.8531 4.82715 10.0008 4.82715ZM10.0008 13.1606C8.25521 13.1606 6.84012 11.7455 6.84012 9.99986C6.84012 8.25423 8.25525 6.83915 10.0008 6.83915C11.7465 6.83915 13.1615 8.25423 13.1615 9.99986C13.1615 11.7455 11.7464 13.1606 10.0008 13.1606Z" />
<path d="M15.1848 6.10593C15.8694 6.10593 16.4243 5.55099 16.4243 4.86644C16.4243 4.18189 15.8694 3.62695 15.1848 3.62695C14.5002 3.62695 13.9453 4.18189 13.9453 4.86644C13.9453 5.55099 14.5002 6.10593 15.1848 6.10593Z" />
</svg>
