<svg width="20" height="20" viewBox="0 0 20 20" xmlns="http://www.w3.org/2000/svg">
<g clip-path="url(#clip0_1265_14473)">
<path d="M9.01636 14.0878C7.4659 13.9261 6.06793 13.5443 4.87104 12.6082C4.72253 12.4917 4.5692 12.3794 4.43367 12.2494C3.9098 11.7462 3.85702 11.17 4.27155 10.5762C4.62617 10.068 5.22147 9.93205 5.84024 10.2238C5.96005 10.2804 6.07421 10.351 6.18355 10.4268C8.41415 11.9595 11.4784 12.0018 13.7174 10.4957C13.9392 10.3256 14.1763 10.187 14.4512 10.1162C14.9855 9.97897 15.4838 10.1752 15.7706 10.6428C16.0982 11.1767 16.094 11.6978 15.6904 12.1124C15.0712 12.7479 14.3265 13.2077 13.4991 13.5286C12.7168 13.8319 11.8599 13.9846 11.0117 14.086C11.1397 14.2253 11.2 14.2938 11.2801 14.3742C12.4317 15.5313 13.5884 16.6835 14.7362 17.8442C15.1273 18.2397 15.209 18.73 14.9937 19.19C14.7582 19.6927 14.2312 20.0235 13.7145 19.9881C13.3871 19.9655 13.1317 19.8025 12.9049 19.574C12.0358 18.6994 11.1504 17.8411 10.2989 16.95C10.0511 16.6909 9.93194 16.7399 9.71326 16.9649C8.83895 17.8649 7.95039 18.7512 7.0566 19.6324C6.65527 20.0281 6.17769 20.0993 5.71225 19.8733C5.21749 19.6335 4.90267 19.1284 4.92697 18.6209C4.94372 18.2776 5.11255 18.0153 5.3482 17.7801C6.4879 16.6421 7.62446 15.5011 8.76145 14.3612C8.83664 14.2854 8.90681 14.2049 9.01636 14.0878Z" />
<path d="M9.95945 10.1233C7.19346 10.1139 4.92536 7.82084 4.94149 5.05045C4.95741 2.24947 7.22697 -0.00773033 10.0202 1.98985e-05C12.8191 0.00756066 15.0656 2.29723 15.0516 5.12732C15.0373 7.89206 12.7535 10.1329 9.95945 10.1233ZM12.4733 5.05715C12.4684 3.68159 11.3729 2.5865 10.0001 2.58525C8.61573 2.58378 7.51038 3.69877 7.52106 5.0869C7.53133 6.45722 8.63626 7.54456 10.0129 7.53953C11.3853 7.53471 12.4779 6.4325 12.4733 5.05715Z" />
</g>
<defs>
<clipPath id="clip0_1265_14473">
<rect width="20" height="20" fill="white"/>
</clipPath>
</defs>
</svg>
