<svg width="49" height="48" viewBox="0 0 49 48" fill="none" xmlns="http://www.w3.org/2000/svg">
<path d="M40.1173 29.636H39.1173C36.5733 29.636 32.3203 26.2061 32.3203 26.2061"  stroke-width="2" stroke-miterlimit="10" stroke-linecap="round" stroke-linejoin="round"/>
<path d="M15.7072 40.9998C15.7072 40.9998 11.9092 42.2837 10.1172 39.6357C11.1322 37.9447 15.1172 30.6357 15.1172 30.6357L24.1172 24.6357L27.4532 24.9797"  stroke-width="2" stroke-miterlimit="10" stroke-linecap="round" stroke-linejoin="round"/>
<path d="M11.3008 46.9097L16.7428 44.2607L18.9338 41.6357"  stroke-width="2" stroke-miterlimit="10" stroke-linecap="round" stroke-linejoin="round"/>
<path d="M23.1172 36.6357L37.8672 19.6357C38.6102 18.7937 38.5712 17.5177 37.7762 16.7237C36.9142 15.8617 35.5053 15.8987 34.6893 16.8057L17.0723 36.7047"  stroke-width="2" stroke-miterlimit="10" stroke-linecap="round" stroke-linejoin="round"/>
<path d="M29.1178 31.6357V33.6357C29.1178 35.1647 27.6468 36.6357 26.1178 36.6357H18.1178C16.8098 36.6357 15.1738 37.4227 15.1738 39.1137C15.1738 40.8047 16.1178 41.6357 18.1178 41.6357H22.1178H25.1178C26.8738 43.1857 27.9218 44.6357 30.1178 44.6357H33.1178C34.0518 44.6357 35.3748 44.1797 36.2728 43.9237C37.1708 43.6667 38.1828 43.6357 39.1178 43.6357H40.1178"  stroke-width="2" stroke-miterlimit="10" stroke-linecap="round" stroke-linejoin="round"/>
<path d="M47.1172 27.6357H40.1172V44.6357H47.1172V27.6357Z"  stroke-width="2" stroke-miterlimit="10" stroke-linecap="round" stroke-linejoin="round"/>
<path d="M22.1172 42.6357V42.8347C22.1172 44.0407 23.4682 44.6357 25.1562 44.6357H25.1092C26.2082 44.6357 27.1522 44.3827 27.6762 43.8737"  stroke-width="2" stroke-miterlimit="10" stroke-linecap="round" stroke-linejoin="round"/>
<path d="M17.3066 43.6347C17.6686 44.3037 18.5206 44.6357 19.5996 44.6357H19.5486C20.9946 44.6357 22.1166 44.0397 22.1166 42.8347V42.6357"  stroke-width="2" stroke-miterlimit="10" stroke-linecap="round" stroke-linejoin="round"/>
<path d="M12.9318 41.4531L12.3058 42.1671L11.3008 46.9101"  stroke-width="2" stroke-miterlimit="10" stroke-linecap="round" stroke-linejoin="round"/>
<path d="M22.1172 42.6357V41.6357"  stroke-width="2" stroke-miterlimit="10" stroke-linecap="round" stroke-linejoin="round"/>
<path d="M24.8846 9.20202C23.1602 7.89662 20.7038 8.2366 19.3984 9.96162C18.5757 11.0483 18.4078 12.4254 18.8268 13.6224L22.2763 16.2332C23.5418 16.311 24.8215 15.7756 25.6442 14.6889C26.9496 12.9633 26.6096 10.5074 24.8846 9.20202Z"  stroke-width="2" stroke-miterlimit="10"/>
<path d="M26.4612 7.12062C23.587 4.94535 19.4931 5.51199 17.3172 8.38621C15.8605 10.3115 15.6394 12.7821 16.5117 14.8587L15.7129 16.9954L19.8766 20.1465L21.7162 18.7976C23.9514 19.0732 26.2694 18.1893 27.7268 16.264C29.9026 13.3897 29.336 9.29588 26.4612 7.12062Z"  stroke-width="2" stroke-miterlimit="10"/>
<path d="M6.54412 3.71034C8.62873 3.19026 10.7403 4.45891 11.2604 6.54351C11.5881 7.85749 11.204 9.18065 10.3544 10.1112L6.18454 11.1507C4.99798 10.7286 4.03807 9.73994 3.71034 8.42657C3.19026 6.34197 4.45891 4.23042 6.54412 3.71034Z"  stroke-width="2" stroke-miterlimit="10"/>
<path d="M5.91629 1.19431C9.39084 0.32751 12.9101 2.44213 13.7769 5.91667C14.357 8.24385 13.5962 10.5876 11.9888 12.1447L11.8853 14.4082L6.85231 15.6634L5.69761 13.7136C3.54746 13.0936 1.77466 11.3821 1.19455 9.0549C0.327136 5.58036 2.44175 2.06049 5.91629 1.19431Z"  stroke-width="2" stroke-miterlimit="10"/>
<path d="M10.8328 17.2671C10.8187 18.4586 10.1332 19.4136 9.30259 19.4001C8.47255 19.3866 7.81035 18.409 7.82444 17.2175C7.83853 16.026 8.524 15.071 9.35466 15.0851C10.1853 15.0992 10.8475 16.0757 10.8328 17.2671Z"  stroke-width="2" stroke-miterlimit="10"/>
<path d="M18.0374 18.9782C17.2587 18.6932 16.2947 19.3714 15.8842 20.4929C15.4737 21.6144 15.7722 22.7546 16.5509 23.0396C17.3297 23.3246 18.2937 22.6465 18.7042 21.525C19.1147 20.4034 18.8161 19.2632 18.0374 18.9782Z"  stroke-width="2" stroke-miterlimit="10"/>
<path d="M16.2125 23.1785C16.1503 22.3516 15.1348 21.7539 13.9442 21.8434C12.7536 21.933 11.8389 22.6759 11.9011 23.5028C11.9633 24.3297 12.9788 24.9274 14.1694 24.8379C15.36 24.7483 16.2747 24.0054 16.2125 23.1785Z"  stroke-width="2" stroke-miterlimit="10"/>
<path d="M12.0102 20.5968C11.4809 19.5316 10.4481 18.9625 9.70261 19.3251C8.95772 19.6884 8.78252 20.8462 9.31118 21.9121C9.83983 22.9773 10.8732 23.5464 11.6181 23.1838C12.3643 22.8205 12.5395 21.6621 12.0102 20.5968Z"  stroke-width="2" stroke-miterlimit="10"/>
</svg>
