<svg width="47" height="47" fill="none" viewBox="0 0 47 47" xmlns="http://www.w3.org/2000/svg">
<path d="M10 33C7.637 33 6 31.081 6 28.714V27.285C6 24.918 7.637 23 10 23C12.363 23 14 24.918 14 27.285V28.714C14 31.081 12.363 33 10 33Z" stroke-width="2" stroke-miterlimit="10"/>
<path d="M1 46.0002C1.569 42.7872 2.22198 39.5472 2.22198 39.5472C2.69798 36.7782 4.78698 35.6162 6.50098 35.6162H7.53998C9.51398 35.6162 10.539 37.4892 11.249 38.5402C11.959 39.5922 12.959 41.0202 12.959 41.0202L17.303 41.6922C19.802 42.2222 19.507 45.9432 16.953 45.9982C16.918 45.9982 10.655 45.9992 10.655 45.9992L7.23199 42.7582" stroke-width="2" stroke-miterlimit="10" stroke-linecap="round" stroke-linejoin="round"/>
<path d="M9 46H42" stroke-width="2" stroke-miterlimit="10" stroke-linecap="round" stroke-linejoin="round"/>
<path d="M22.3754 43H31.4144L37.0004 33H20.5864L17.4014 38.702" stroke-width="2" stroke-miterlimit="10" stroke-linecap="round" stroke-linejoin="round"/>
<path d="M14 14C14 6.82 21.164 1 30 1C38.836 1 46 6.82 46 14C46 21.18 38.836 27 30 27C28.187 27 26.45 26.743 24.825 26.292L18.393 29.823L18.841 23.307C15.858 20.946 14 17.651 14 14Z" stroke-width="2" stroke-miterlimit="10" stroke-linecap="round" stroke-linejoin="round"/>
</svg>
