<svg width="39" height="48" viewBox="0 0 39 48" fill="none" xmlns="http://www.w3.org/2000/svg">
<path d="M34.0059 44L29.0059 38"  stroke-width="2" stroke-miterlimit="10"/>
<path d="M9.00586 44L14.0059 38"  stroke-width="2" stroke-miterlimit="10"/>
<path d="M9.00586 30L17.0059 37C17.6059 37.566 18.9829 38 21.0059 38H22.0059C24.0289 38 25.4059 37.566 26.0059 37L34.0059 30"  stroke-width="2" stroke-miterlimit="10"/>
<path d="M30.9718 23L35.9898 27C36.5288 27.444 37.0078 28.247 37.0078 29V45C37.0078 46.104 36.1118 47 35.0078 47H8.00781C6.90381 47 6.00781 46.104 6.00781 45V29C6.00781 28.247 6.48682 27.444 7.02582 27L12.0438 23"  stroke-width="2" stroke-miterlimit="10"/>
<path d="M20.0059 20H31.0059V33"  stroke-width="2" stroke-miterlimit="10"/>
<path d="M12.0059 33V20H14.0059"  stroke-width="2" stroke-miterlimit="10"/>
<path d="M1.00769 32V29C1.00769 20.705 9.00769 15 16.0077 15C16.0077 16.255 16.0077 19 16.0077 19L28.8047 11.363L16.0077 2V6C6.00769 6 2.0267 11.349 1.0007 12.764"  stroke-width="2" stroke-miterlimit="10"/>
</svg>
