<svg width="48" height="48" viewBox="0 0 48 48" fill="none" xmlns="http://www.w3.org/2000/svg">
<path d="M40.0001 29.636H39.0001C36.4561 29.636 32.2031 26.2061 32.2031 26.2061"  stroke-width="2" stroke-miterlimit="10" stroke-linecap="round" stroke-linejoin="round"/>
<path d="M15.59 40.9998C15.59 40.9998 11.792 42.2837 10 39.6357C11.015 37.9447 15 30.6357 15 30.6357L24 24.6357L27.336 24.9797"  stroke-width="2" stroke-miterlimit="10" stroke-linecap="round" stroke-linejoin="round"/>
<path d="M11.1836 46.9097L16.6256 44.2607L18.8166 41.6357"  stroke-width="2" stroke-miterlimit="10" stroke-linecap="round" stroke-linejoin="round"/>
<path d="M23.0001 36.6357L37.7501 19.6357C38.4931 18.7937 38.4541 17.5177 37.6591 16.7237C36.7971 15.8617 35.3881 15.8987 34.5721 16.8057L16.9551 36.7047"  stroke-width="2" stroke-miterlimit="10" stroke-linecap="round" stroke-linejoin="round"/>
<path d="M29.0006 31.6357V33.6357C29.0006 35.1647 27.5296 36.6357 26.0006 36.6357H18.0006C16.6926 36.6357 15.0566 37.4227 15.0566 39.1137C15.0566 40.8047 16.0006 41.6357 18.0006 41.6357H22.0006H25.0006C26.7566 43.1857 27.8046 44.6357 30.0006 44.6357H33.0006C33.9346 44.6357 35.2576 44.1797 36.1556 43.9237C37.0536 43.6667 38.0656 43.6357 39.0006 43.6357H40.0006"  stroke-width="2" stroke-miterlimit="10" stroke-linecap="round" stroke-linejoin="round"/>
<path d="M47 27.6357H40V44.6357H47V27.6357Z"  stroke-width="2" stroke-miterlimit="10" stroke-linecap="round" stroke-linejoin="round"/>
<path d="M22 42.6357V42.8347C22 44.0407 23.351 44.6357 25.039 44.6357H24.992C26.091 44.6357 27.035 44.3827 27.559 43.8737"  stroke-width="2" stroke-miterlimit="10" stroke-linecap="round" stroke-linejoin="round"/>
<path d="M17.1895 43.6347C17.5515 44.3037 18.4034 44.6357 19.4824 44.6357H19.4315C20.8775 44.6357 21.9995 44.0397 21.9995 42.8347V42.6357"  stroke-width="2" stroke-miterlimit="10" stroke-linecap="round" stroke-linejoin="round"/>
<path d="M12.8146 41.4531L12.1886 42.1671L11.1836 46.9101"  stroke-width="2" stroke-miterlimit="10" stroke-linecap="round" stroke-linejoin="round"/>
<path d="M22 42.6357V41.6357"  stroke-width="2" stroke-miterlimit="10" stroke-linecap="round" stroke-linejoin="round"/>
<path d="M27 20.999V17.999H14H1V20.999L7 26.999"  stroke-width="2" stroke-miterlimit="10"/>
<path d="M7 29.999V21.999"  stroke-width="2" stroke-miterlimit="10"/>
<path d="M22 17.999V13.999C22 11.551 15.913 9.99902 14 9.99902C12.086 9.99902 6 11.551 6 13.999V17.999"  stroke-width="2" stroke-miterlimit="10"/>
<path d="M14 9.99899C16.29 9.99899 18 8.27199 18 6.14299V4.85599C18 2.72599 16.29 1 14 1C11.71 1 10 2.72699 10 4.85599V6.14299C10 8.27199 11.71 9.99899 14 9.99899Z"  stroke-width="2" stroke-miterlimit="10"/>
</svg>
