<svg width="40" height="44" viewBox="0 0 40 44" fill="none" xmlns="http://www.w3.org/2000/svg">
<path d="M20 1C9.507 1 1 9.507 1 20C1 24.864 2.84298 29.287 5.84998 32.648C5.33098 36.01 4.551 39.419 3.961 41.376C3.739 42.112 4.39 42.815 5.138 42.643C7.119 42.188 10.82 39.909 13.882 37.975C15.804 38.629 17.857 39 20 39C30.493 39 39 30.493 39 20C39 9.507 30.493 1 20 1Z"  stroke-width="2" stroke-miterlimit="10"/>
<path d="M32 17.2717L30.4152 13.4449L28.0864 14.2206C27.441 13.3164 26.6586 12.544 25.7802 11.9178L26.5559 9.58647L22.7292 8L21.6295 10.1968C20.5649 10.019 19.466 10.0115 18.3697 10.1943L17.2717 8L13.4449 9.5848L14.2206 11.9136C13.3164 12.559 12.544 13.3414 11.9169 14.2198L9.58564 13.4433L8 17.2717L10.1968 18.3714C10.019 19.436 10.0115 20.5348 10.1943 21.6311L8 22.7292L9.5848 26.5559L11.9136 25.781C12.559 26.6853 13.3414 27.4577 14.2198 28.0848L13.4433 30.416L17.27 32.0008L18.3689 29.804C19.4335 29.9818 20.5323 29.9894 21.6286 29.8065L22.7266 32.0008L26.5534 30.416L25.7785 28.0873C26.6828 27.4418 27.4552 26.6594 28.0823 25.781L30.4135 26.5567L31.9983 22.73L29.8015 21.6303C29.9793 20.5657 29.9869 19.4669 29.804 18.3705L32 17.2717Z"  stroke-width="2" stroke-miterlimit="10" stroke-linejoin="round"/>
<path d="M19.9996 23.9758C22.1956 23.9758 23.9758 22.1956 23.9758 19.9996C23.9758 17.8036 22.1956 16.0234 19.9996 16.0234C17.8036 16.0234 16.0234 17.8036 16.0234 19.9996C16.0234 22.1956 17.8036 23.9758 19.9996 23.9758Z"  stroke-width="2" stroke-miterlimit="10" stroke-linejoin="round"/>
</svg>
