<svg width="45" height="47" fill="none" viewBox="0 0 45 47" xmlns="http://www.w3.org/2000/svg">
<path d="M14.9648 18C19.0336 18 21.9472 15.06 21.9472 10.8V8.20001C21.9472 3.94001 19.0336 1 14.9648 1C10.8961 1 7.98242 3.94001 7.98242 8.20001V10.8C7.98242 15.06 10.8961 18 14.9648 18Z" stroke-width="2" stroke-miterlimit="10" stroke-linejoin="round"/>
<path d="M24 20.281C21.0724 18.728 17.4565 18 14.9648 18C10.114 18 1 20.76 1 27V35" stroke-width="2" stroke-miterlimit="10" stroke-linecap="round" stroke-linejoin="round"/>
<path d="M17 46C17.8224 42.4367 19.6289 39.1769 22.215 36.5908L39.1114 19.6947C40.0376 18.7684 41.5407 18.7684 42.467 19.6947L43.3053 20.5331C44.2316 21.4593 44.2316 22.9615 43.3053 23.8878L26.4089 40.7838C23.8239 43.371 20.5631 45.1776 17 46Z" stroke-width="2" stroke-miterlimit="10" stroke-linecap="round" stroke-linejoin="round"/>
<path d="M36.5938 22.2119L41.6261 27.2444C42.5523 28.1706 42.5523 29.6728 41.6261 30.5991L36.5938 35.6316" stroke-width="2" stroke-miterlimit="10" stroke-linecap="round" stroke-linejoin="round"/>
<path d="M26.2852 32.5205L30.4781 36.7146" stroke-width="2" stroke-miterlimit="10" stroke-linecap="round" stroke-linejoin="round"/>
</svg>
