<svg width="46" height="50" fill="none" viewBox="0 0 46 50" xmlns="http://www.w3.org/2000/svg">
<path d="M36.8073 12.337L35.7233 9.72099L34.1313 10.251C33.6913 9.63301 33.1553 9.105 32.5553 8.677L33.0853 7.084L30.4703 6L29.7183 7.502C28.9903 7.38 28.2393 7.375 27.4903 7.5L26.7393 6L24.1243 7.084L24.6533 8.675C24.0353 9.116 23.5073 9.652 23.0793 10.252L21.4863 9.72099L20.4023 12.337L21.9043 13.088C21.7823 13.816 21.7773 14.567 21.9023 15.317L20.4023 16.068L21.4863 18.683L23.0783 18.153C23.5193 18.772 24.0543 19.299 24.6543 19.728L24.1243 21.321L26.7393 22.404L27.4913 20.903C28.2193 21.024 28.9703 21.029 29.7193 20.904L30.4703 22.404L33.0853 21.321L32.5563 19.729C33.1743 19.288 33.7023 18.753 34.1303 18.153L35.7233 18.683L36.8073 16.068L35.3053 15.316C35.4273 14.588 35.4323 13.837 35.3073 13.088L36.8073 12.337Z" stroke-width="2" stroke-miterlimit="10" stroke-linejoin="round"/>
<path d="M28.7107 17.0054C30.2013 17.0054 31.4097 15.797 31.4097 14.3064C31.4097 12.8158 30.2013 11.6074 28.7107 11.6074C27.2201 11.6074 26.0117 12.8158 26.0117 14.3064C26.0117 15.797 27.2201 17.0054 28.7107 17.0054Z" stroke-width="2" stroke-miterlimit="10" stroke-linejoin="round"/>
<path d="M10.4305 15.5371L1.72949 18.2401" stroke-width="2" stroke-miterlimit="10" stroke-linejoin="round"/>
<path d="M11.0007 10.124L3.11072 12.575C1.52772 13.067 0.644716 14.748 1.13572 16.33L10.6307 46.889C11.1227 48.472 12.8037 49.355 14.3857 48.864L28.7107 44.413C30.2927 43.921 31.1767 42.24 30.6857 40.658L27.5697 30.629" stroke-width="2" stroke-miterlimit="10"/>
<path d="M19.2256 44.2191L22.0906 43.3291" stroke-width="2" stroke-miterlimit="10" stroke-linejoin="round"/>
<path d="M9.74023 44.0239L29.7952 37.7939" stroke-width="2" stroke-miterlimit="10" stroke-linejoin="round"/>
<path d="M29.001 1C20.165 1 13.001 7.596 13.001 14.5C13.001 17.229 14.132 20.745 16.031 22.8C15.758 24.922 15.235 27.15 14.404 29.227C14.095 29.998 14.775 30.803 15.579 30.607C19.036 29.766 21.621 28.538 23.512 27.23C25.226 27.72 27.07 28.001 29.001 28.001C37.837 28.001 45.001 21.405 45.001 14.501C45.001 7.59701 37.837 1 29.001 1Z" stroke-width="2" stroke-miterlimit="10"/>
</svg>
