<svg width="48" height="47" viewBox="0 0 48 47" fill="none" xmlns="http://www.w3.org/2000/svg">
<path d="M40.0001 28.636H39.0001C36.4561 28.636 32.2031 25.2061 32.2031 25.2061"  stroke-width="2" stroke-miterlimit="10" stroke-linecap="round" stroke-linejoin="round"/>
<path d="M15.59 39.9998C15.59 39.9998 11.792 41.2837 10 38.6357C11.015 36.9447 15 29.6357 15 29.6357L24 23.6357L27.336 23.9797"  stroke-width="2" stroke-miterlimit="10" stroke-linecap="round" stroke-linejoin="round"/>
<path d="M11.1836 45.9097L16.6256 43.2607L18.8166 40.6357"  stroke-width="2" stroke-miterlimit="10" stroke-linecap="round" stroke-linejoin="round"/>
<path d="M23.0001 35.6357L37.7501 18.6357C38.4931 17.7937 38.4541 16.5177 37.6591 15.7237C36.7971 14.8617 35.3881 14.8987 34.5721 15.8057L16.9551 35.7047"  stroke-width="2" stroke-miterlimit="10" stroke-linecap="round" stroke-linejoin="round"/>
<path d="M29.0006 30.6357V32.6357C29.0006 34.1647 27.5296 35.6357 26.0006 35.6357H18.0006C16.6926 35.6357 15.0566 36.4227 15.0566 38.1137C15.0566 39.8047 16.0006 40.6357 18.0006 40.6357H22.0006H25.0006C26.7566 42.1857 27.8046 43.6357 30.0006 43.6357H33.0006C33.9346 43.6357 35.2576 43.1797 36.1556 42.9237C37.0536 42.6667 38.0656 42.6357 39.0006 42.6357H40.0006"  stroke-width="2" stroke-miterlimit="10" stroke-linecap="round" stroke-linejoin="round"/>
<path d="M47 26.6357H40V43.6357H47V26.6357Z"  stroke-width="2" stroke-miterlimit="10" stroke-linecap="round" stroke-linejoin="round"/>
<path d="M22 41.6357V41.8347C22 43.0407 23.351 43.6357 25.039 43.6357H24.992C26.091 43.6357 27.035 43.3827 27.559 42.8737"  stroke-width="2" stroke-miterlimit="10" stroke-linecap="round" stroke-linejoin="round"/>
<path d="M17.1895 42.6347C17.5515 43.3037 18.4034 43.6357 19.4824 43.6357H19.4315C20.8775 43.6357 21.9995 43.0397 21.9995 41.8347V41.6357"  stroke-width="2" stroke-miterlimit="10" stroke-linecap="round" stroke-linejoin="round"/>
<path d="M12.8146 40.4531L12.1886 41.1671L11.1836 45.9101"  stroke-width="2" stroke-miterlimit="10" stroke-linecap="round" stroke-linejoin="round"/>
<path d="M22 41.6357V40.6357"  stroke-width="2" stroke-miterlimit="10" stroke-linecap="round" stroke-linejoin="round"/>
<path d="M16 11.001C17.804 11.001 19 9.46602 19 7.57202V6.42902C19 4.53502 17.804 3 16 3C14.196 3 13 4.53502 13 6.42902V7.57202C13 9.46602 14.196 11.001 16 11.001Z"  stroke-width="2" stroke-miterlimit="10"/>
<path d="M22 18.001V14.001C22 11.523 18.084 11.001 16 11.001C13.916 11.001 10 11.523 10 14.001V18.001"  stroke-width="2" stroke-miterlimit="10"/>
<path d="M25 9.00101C23.196 9.00101 22 7.46602 22 5.57202V4.42902C22 2.53502 23.196 1 25 1C26.804 1 28 2.53502 28 4.42902V5.57202C28 7.46602 26.804 9.00101 25 9.00101Z"  stroke-width="2" stroke-miterlimit="10"/>
<path d="M21 9.65399C22.278 9.14699 23.896 9.00098 25 9.00098C27.085 9.00098 31 9.52298 31 12.001V14.001"  stroke-width="2" stroke-miterlimit="10"/>
<path d="M7 9.00101C8.804 9.00101 10 7.46602 10 5.57202V4.42902C10 2.53502 8.804 1 7 1C5.196 1 4 2.53502 4 4.42902V5.57202C4 7.46602 5.196 9.00101 7 9.00101Z"  stroke-width="2" stroke-miterlimit="10"/>
<path d="M11 9.65399C9.722 9.14699 8.104 9.00098 7 9.00098C4.916 9.00098 1 9.52298 1 12.001V14.001"  stroke-width="2" stroke-miterlimit="10"/>
</svg>
