<svg width="40" height="44" viewBox="0 0 40 44" fill="none" xmlns="http://www.w3.org/2000/svg">
<path d="M20 34C21.6569 34 23 32.6569 23 31C23 29.3431 21.6569 28 20 28C18.3431 28 17 29.3431 17 31C17 32.6569 18.3431 34 20 34Z"  stroke-width="2" stroke-miterlimit="10"/>
<path d="M25.184 8.24806C22.22 6.31906 18.206 6.47705 15.387 8.59905C13.296 10.1721 12.094 12.1421 12 14.4381C12 15.5051 13.119 16.3711 14.5 16.3711C15.88 16.3711 16.776 15.439 17.08 14.551C17.384 13.662 17.972 12.9911 18.872 12.4451C19.904 11.8191 21.262 11.8511 22.268 12.5161C23.961 13.6351 24.09 15.8881 22.713 17.2181C21.092 18.7841 17 19.5131 17 22.1021V23.0691C17 24.1361 18.119 25.0021 19.5 25.0021C20.88 25.0021 21.487 23.7061 22.639 22.7391C23.791 21.7721 25.264 21.9071 26.44 20.8201C30.206 17.3361 29.738 11.2111 25.184 8.24806Z"  stroke-width="2" stroke-miterlimit="10"/>
<path d="M20 1C9.507 1 1 9.507 1 20C1 24.864 2.84298 29.287 5.84998 32.648C5.33098 36.01 4.551 39.419 3.961 41.376C3.739 42.112 4.39 42.815 5.138 42.643C7.119 42.188 10.82 39.909 13.882 37.975C15.804 38.629 17.857 39 20 39C30.493 39 39 30.493 39 20C39 9.507 30.493 1 20 1Z"  stroke-width="2" stroke-miterlimit="10"/>
</svg>
