<svg width="46" height="46" viewBox="0 0 46 46" fill="none" xmlns="http://www.w3.org/2000/svg">
<path d="M23 45C35.1503 45 45 35.1503 45 23C45 10.8497 35.1503 1 23 1C10.8497 1 1 10.8497 1 23C1 35.1503 10.8497 45 23 45Z"  stroke-width="2" stroke-miterlimit="10" stroke-linejoin="round"/>
<path d="M5.52734 20.8594C6.43814 13.3486 12.08 7.29645 19.384 5.77185"  stroke-width="2" stroke-miterlimit="10" stroke-linecap="round" stroke-linejoin="round"/>
<path d="M38.7059 30.9453C36.9932 34.3234 34.2244 37.0745 30.832 38.7641"  stroke-width="2" stroke-miterlimit="10" stroke-linecap="round" stroke-linejoin="round"/>
<path d="M14.3324 31.64C16.3707 28.3417 19.1283 26.3429 23.4934 26.3429L23.4934 30.4572L33.206 22.2286L23.4934 14L23.4934 18.1143C18.7814 18.1143 14.3303 21.0574 12 25.3712"  stroke-width="2" stroke-miterlimit="10" stroke-linejoin="round"/>
</svg>
