<svg width="24" height="24" viewBox="0 0 24 24" fill="none" xmlns="http://www.w3.org/2000/svg">
<path d="M12.0052 1C11.1303 2.25483 4.29168 4.82717 2 4.82717C2 9.005 2 10.3211 2 13.9167C2 18.1897 11.4998 22.8651 12 23C12.5002 22.8651 22 17.8635 22 14.3951C22 10.7995 22 9.005 22 4.82717C19.4999 4.82717 12.8801 2.25483 12.0052 1Z" stroke="#D51A1A" stroke-width="2" stroke-miterlimit="10" stroke-linecap="round" stroke-linejoin="round"/>
<path d="M12 18.4245C13.4844 17.4816 17.1969 15.5305 18.399 13.6719" stroke="#D51A1A" stroke-width="2" stroke-miterlimit="10" stroke-linecap="round" stroke-linejoin="round"/>
<path d="M5 13.2951C5 10.7747 5 10.7954 5 7.86657C7 7.5 10.5 6 12 5" stroke="#D51A1A" stroke-width="2" stroke-miterlimit="10" stroke-linecap="round" stroke-linejoin="round"/>
</svg>
