<svg width="24" height="24" viewBox="0 0 24 24" fill="none" xmlns="http://www.w3.org/2000/svg">
<path d="M23 11.7179C23 17.6371 18.2988 22.4359 12.5 22.4359C10.9841 22.4359 9.54673 22.1014 8.24529 21.5113C5.74739 22.9994 1 23 1 23C1 23 3.21634 20.8243 4.07016 18.0884C2.77534 16.3064 2 14.1069 2 11.7179C2 5.79882 6.70124 1 12.5 1C13.6081 1 14.676 1.17522 15.6788 1.5" stroke="#A7319D" stroke-width="2" stroke-miterlimit="10" stroke-linecap="round" stroke-linejoin="round"/>
<path d="M7 17C7.48736 14.8884 8.55789 12.9567 10.0903 11.4242L20.1031 1.41167C20.6519 0.862778 21.5427 0.862778 22.0915 1.41167L22.5883 1.9085C23.1372 2.45739 23.1372 3.34758 22.5883 3.89647L12.5756 13.9089C11.0438 15.442 9.11149 16.5126 7 17Z" stroke="#A7319D" stroke-width="2" stroke-miterlimit="10" stroke-linecap="round" stroke-linejoin="round"/>
<path d="M19 4L21.6361 7.00007C22.1213 7.55224 22.1213 8.44776 21.6361 8.99993L19 12" stroke="#A7319D" stroke-width="2" stroke-miterlimit="10" stroke-linecap="round" stroke-linejoin="round"/>
<path d="M12 10L14 12" stroke="#A7319D" stroke-width="2" stroke-miterlimit="10" stroke-linecap="round" stroke-linejoin="round"/>
</svg>
