<svg width="24" height="24" viewBox="0 0 24 24" fill="none" xmlns="http://www.w3.org/2000/svg">
<path d="M18.3839 5.5C18.0448 5.16767 17.6816 4.86425 17.2985 4.59115L18.0096 2.45422L14.5017 1L13.4937 3.01371C12.5178 2.85068 11.5105 2.84379 10.5055 3.01141L9.49904 1L5.9912 2.45268L6.70226 4.58732C5.87333 5.17896 5.16533 5.89612 4.59051 6.70129L2.4535 5.98949L1 9.49875L3.01378 10.5067C2.85075 11.4826 2.84386 12.4898 3.01148 13.4948L1 14.5013L2.45274 18.009L4.58745 17.2987C4.86525 17.6879 5.17073 18.0504 5.5 18.3851" stroke="#009DB2" stroke-width="2" stroke-miterlimit="10" stroke-linecap="round" stroke-linejoin="round"/>
<path d="M14.6458 9C13.9407 8.37764 13.0144 8 12 8C9.79086 8 8 9.79086 8 12C8 12.9459 8.32836 13.8152 8.87732 14.5" stroke="#009DB2" stroke-width="2" stroke-miterlimit="10" stroke-linecap="round" stroke-linejoin="round"/>
<path d="M7 23C7.48736 20.8884 8.55789 18.9567 10.0903 17.4242L20.1031 7.41167C20.6519 6.86278 21.5427 6.86278 22.0915 7.41167L22.5883 7.9085C23.1372 8.45739 23.1372 9.34758 22.5883 9.89647L12.5756 19.9089C11.0438 21.442 9.11149 22.5126 7 23Z" stroke="#009DB2" stroke-width="2" stroke-miterlimit="10" stroke-linecap="round" stroke-linejoin="round"/>
<path d="M19 10L21.6361 13.0001C22.1213 13.5522 22.1213 14.4478 21.6361 14.9999L19 18" stroke="#009DB2" stroke-width="2" stroke-miterlimit="10" stroke-linecap="round" stroke-linejoin="round"/>
<path d="M12 16L14 18" stroke="#009DB2" stroke-width="2" stroke-miterlimit="10" stroke-linecap="round" stroke-linejoin="round"/>
</svg>
