<svg width="24" height="24" viewBox="0 0 24 24" fill="none" xmlns="http://www.w3.org/2000/svg">
<path d="M23 9.49875L21.5473 5.99102L19.4126 6.70206C18.8209 5.87316 18.1037 5.16518 17.2985 4.59115L18.0096 2.45422L14.5017 1L13.4937 3.01371C12.5178 2.85068 11.5105 2.84379 10.5055 3.01141L9.49904 1L5.9912 2.45268L6.70226 4.58732C5.87333 5.17896 5.16533 5.89612 4.59051 6.70129L2.4535 5.98949L1 9.49875L3.01378 10.5067C2.85075 11.4826 2.84386 12.4898 3.01148 13.4948L1 14.5013L2.45274 18.009L4.58745 17.2987C5.17911 18.1276 5.89629 18.8356 6.70149 19.4104L5.98967 21.5473L9.49751 23L10.5048 20.9863C11.4807 21.1493 12.4879 21.1562 13.4929 20.9886L14.4994 23L18.0073 21.5473L17.297 19.4127C18.1259 18.821 18.8339 18.1039 19.4087 17.2987L21.5457 18.0097L22.9985 14.502L20.9847 13.494C21.1477 12.5182 21.1546 11.5109 20.987 10.506L23 9.49875Z" stroke="#009DB2" stroke-width="2" stroke-miterlimit="10" stroke-linejoin="round"/>
<path d="M12 16C14.2091 16 16 14.2091 16 12C16 9.79086 14.2091 8 12 8C9.79086 8 8 9.79086 8 12C8 14.2091 9.79086 16 12 16Z" stroke="#009DB2" stroke-width="2" stroke-miterlimit="10" stroke-linejoin="round"/>
</svg>
