<svg width="24" height="24" viewBox="0 0 24 24" fill="none" xmlns="http://www.w3.org/2000/svg">
<path d="M1 23.0002V18.5002C1 16.3633 4.87054 14.7304 8 14.1914" stroke="#65B94D" stroke-width="2" stroke-miterlimit="10" stroke-linecap="round" stroke-linejoin="round"/>
<path d="M10 11C12.3304 11 14 9.2 14 6.83333V5.16667C14 2.8 12.3304 1 10 1C7.6688 1 6 2.8 6 5.16667V6.83333C6 9.2 7.6688 11 10 11Z" stroke="#65B94D" stroke-width="2" stroke-miterlimit="10" stroke-linejoin="round"/>
<path d="M7 23C7.48736 20.8884 8.55789 18.9567 10.0903 17.4242L20.1031 7.41167C20.6519 6.86278 21.5427 6.86278 22.0915 7.41167L22.5883 7.9085C23.1372 8.45739 23.1372 9.34758 22.5883 9.89647L12.5756 19.9089C11.0438 21.442 9.11149 22.5126 7 23Z" stroke="#65B94D" stroke-width="2" stroke-miterlimit="10" stroke-linecap="round" stroke-linejoin="round"/>
<path d="M19 10L21.6361 13.0001C22.1213 13.5522 22.1213 14.4478 21.6361 14.9999L19 18" stroke="#65B94D" stroke-width="2" stroke-miterlimit="10" stroke-linecap="round" stroke-linejoin="round"/>
<path d="M12 16L14 18" stroke="#65B94D" stroke-width="2" stroke-miterlimit="10" stroke-linecap="round" stroke-linejoin="round"/>
</svg>
