<svg width="24" height="24" viewBox="0 0 24 24" fill="none" xmlns="http://www.w3.org/2000/svg">
<path d="M15.5 1.44389C14.5494 1.15509 13.5424 1 12.5 1C6.70124 1 2 5.79882 2 11.7179C2 14.1069 2.77534 16.3064 4.07016 18.0884C3.21634 20.8243 1 23 1 23C1 23 5.74739 22.9994 8.24529 21.5113C9.54673 22.1014 10.9841 22.4359 12.5 22.4359C18.2988 22.4359 23 17.6371 23 11.7179C23 11.0198 22.9346 10.3372 22.8097 9.67622" stroke="#A7319D" stroke-width="2" stroke-miterlimit="10" stroke-linecap="round" stroke-linejoin="round"/>
<path d="M20 2L12 10L9 7L6 10L12 16L23 5L20 2Z" stroke="#A7319D" stroke-width="2" stroke-miterlimit="10" stroke-linejoin="round"/>
</svg>
