<svg width="24" height="24" viewBox="0 0 24 24" fill="none" xmlns="http://www.w3.org/2000/svg">
<path d="M13.4937 3.01371C12.5178 2.85068 11.5105 2.84379 10.5055 3.01141L9.49904 1L5.9912 2.45268L6.70226 4.58732C5.87333 5.17896 5.16533 5.89612 4.59051 6.70129L2.4535 5.98949L1 9.49875L3.01378 10.5067C2.85075 11.4826 2.84386 12.4898 3.01148 13.4948L1 14.5013L2.45274 18.009L4.58745 17.2987C5.17911 18.1276 5.89629 18.8356 6.70149 19.4104L5.98967 21.5473L9.49751 23L10.5048 20.9863C11.4807 21.1493 12.4879 21.1562 13.4929 20.9886L14.4994 23L18.0073 21.5473L17.297 19.4127C18.1259 18.821 18.8339 18.1039 19.4087 17.2987L21.5457 18.0097L22.9985 14.502L20.9847 13.494C21.1477 12.5182 21.1546 11.5109 20.987 10.506" stroke="#009DB2" stroke-width="2" stroke-miterlimit="10" stroke-linecap="round" stroke-linejoin="round"/>
<path d="M20 2L13 9L10 6L7 9L13 15L23 5L20 2Z" stroke="#009DB2" stroke-width="2" stroke-miterlimit="10" stroke-linejoin="round"/>
</svg>
