<svg width="20" height="20" viewBox="0 0 20 20" xmlns="http://www.w3.org/2000/svg">
<path d="M2.60986 14.9512C1.2625 14.9512 0.171875 16.0427 0.171875 17.3896C0.171875 18.7355 1.2625 19.8262 2.60986 19.8262C3.95603 19.8262 5.0474 18.7355 5.0474 17.3896C5.0474 16.0427 3.95603 14.9512 2.60986 14.9512Z" />
<path d="M0 0V2.87678C8.87478 3.07737 16.9217 11.1218 17.1234 19.9993H20C19.7969 9.04218 10.9538 0.202511 0 0Z" />
<path d="M0 7.37305V10.3446C4.78012 10.4867 9.51313 15.2185 9.65653 19.9997H12.6283C12.4222 13.1133 6.88434 7.57808 0 7.37305Z" />
</svg>
