<svg width="44" height="48" viewBox="0 0 44 48" fill="none" xmlns="http://www.w3.org/2000/svg">
<g clip-path="url(#clip0)">
<path d="M43.5945 15.9319C43.341 13.4809 41.5161 10.2638 39.5899 8.78298C39.5899 8.78298 36.6498 6.58723 33 4.44255C29.3502 2.24681 26.0046 0.765957 26.0046 0.765957C24.8894 0.255319 23.4194 0 22 0C20.53 0 19.0599 0.255319 17.9954 0.765957C17.9954 0.765957 14.7005 2.24681 11 4.44255C7.35023 6.6383 4.41014 8.78298 4.41014 8.78298C2.43318 10.2638 0.658986 13.4809 0.40553 15.9319C0.40553 15.9319 0 19.6085 0 24C0 28.3404 0.40553 32.0681 0.40553 32.0681C0.658986 34.5191 2.48387 37.7362 4.41014 39.217C4.41014 39.217 7.35023 41.4128 11 43.6085C14.6498 45.8043 17.9954 47.2851 17.9954 47.2851C19.1106 47.7957 20.5806 48.0511 22 48.0511C23.47 48.0511 24.9401 47.7957 26.0046 47.2851C26.0046 47.2851 29.2995 45.8043 33 43.6085C36.6498 41.4128 39.5899 39.217 39.5899 39.217C41.5668 37.7362 43.341 34.5191 43.5945 32.0681C43.5945 32.0681 44 28.3915 44 24C44 19.6596 43.5945 15.9319 43.5945 15.9319ZM41.5668 31.8128C41.3641 33.7532 39.8433 36.4085 38.3733 37.5319C38.3226 37.5319 35.4839 39.6766 31.9862 41.7702C28.4885 43.8638 25.2442 45.3447 25.1935 45.3447C24.3825 45.7021 23.2166 45.9064 22 45.9064C20.7834 45.9064 19.6175 45.7021 18.8064 45.3447C18.7558 45.3447 15.5622 43.8638 12.0138 41.7702C8.51613 39.6766 5.62673 37.5319 5.62673 37.5319C4.10599 36.4085 2.63594 33.7021 2.43318 31.8128C2.38249 31.8128 2.02765 28.1872 2.02765 24C2.02765 19.8128 2.38249 16.1872 2.38249 16.1872C2.58525 14.2468 4.10599 11.5915 5.57604 10.4681C5.62673 10.4681 8.46544 8.3234 11.9631 6.22979C15.4608 4.13617 18.7051 2.65532 18.7558 2.65532C19.6175 2.24681 20.7834 2.04255 22 2.04255C23.2166 2.04255 24.3825 2.24681 25.1935 2.60426C25.2442 2.60426 28.4378 4.08511 31.9862 6.17872C35.4839 8.27234 38.3733 10.417 38.3733 10.417C39.894 11.5404 41.3641 14.2468 41.5668 16.1362C41.5668 16.1872 41.9217 19.7617 41.9217 23.9489C41.9723 28.1872 41.5668 31.8128 41.5668 31.8128Z" fill="#C22353"/>
<path d="M24.2306 24.6639C25.0417 23.8468 25.5993 22.6724 25.5993 21.3447C25.5993 18.7915 23.6223 16.749 21.1891 16.749C18.756 16.749 16.779 18.7915 16.779 21.3447C16.779 22.6724 17.2859 23.8468 18.1477 24.6639C16.5762 25.3277 15.2583 26.5022 14.5486 28.0341C14.2444 28.6979 14.2951 29.4639 14.65 30.0766C14.8527 30.383 15.2583 31.0468 17.3366 31.7107C18.0463 31.966 19.5163 32.3234 21.0878 32.3234H21.1384C23.2168 32.3234 26.7652 31.4553 27.6776 29.9234C28.0831 29.2596 28.0831 28.4936 27.779 27.8298C27.0693 26.4511 25.802 25.3277 24.2306 24.6639ZM21.1891 18.8426C22.5071 18.8426 23.5716 19.966 23.5716 21.3958C23.5716 22.8256 22.5071 23.949 21.1891 23.949C19.8712 23.949 18.8066 22.8256 18.8066 21.3958C18.8066 19.966 19.8712 18.8426 21.1891 18.8426ZM21.1891 30.383C21.1384 30.383 21.1384 30.383 21.1891 30.383C18.7053 30.383 16.2721 29.2596 16.3735 28.9532C17.1845 27.2681 19.0601 26.0936 21.2398 26.0936C23.3689 26.0936 25.2444 27.2171 26.0555 28.8511C26.1569 29.1575 23.7237 30.3319 21.1891 30.383Z" fill="#C22353"/>
<path d="M29.9079 11.5404V9.44678C29.9079 8.73189 29.6037 8.06806 29.0968 7.65955C28.5899 7.25104 27.8802 7.14891 27.1705 7.35317L12.4194 11.5404C12.1152 11.6425 11.9125 11.8468 11.7604 12.1021C11.4056 12.4595 11.1521 12.9702 11.1521 13.583V36.5617C11.1521 37.6851 12.0645 38.6042 13.1797 38.6042H29.4009C30.5162 38.6042 31.4286 37.6851 31.4286 36.5617V13.583C31.4286 12.5617 30.7696 11.7447 29.9079 11.5404ZM27.7281 9.29359H27.8802C27.8802 9.29359 27.9309 9.34465 27.9309 9.44678V11.4893H20.0231L27.7281 9.29359ZM29.4009 36.5106H13.1797V13.5319H29.4009V36.5106Z" fill="#C22353"/>
</g>
<defs>
<clipPath id="clip0">
<rect width="44" height="48" fill="white"/>
</clipPath>
</defs>
</svg>
