<svg width="24" height="24" viewBox="0 0 24 24" fill="none" xmlns="http://www.w3.org/2000/svg">
<g clip-path="url(#clip0_264_6612)">
<path d="M11.4947 6C11.4965 6 11.4982 6 11.5 6C11.5017 6 11.5035 6 11.5052 6C13.4329 6 14.9965 7.46388 15 9.49475C15.0035 11.5256 13.4425 13 11.5158 13C11.5105 13 11.5052 13 11.5 13C11.4947 13 11.4895 13 11.4842 13C9.5575 13 7.99738 11.5256 8 9.49475C8.00263 7.46388 9.56713 6 11.4947 6Z" stroke="#0061D9" stroke-width="2" stroke-miterlimit="10"/>
<path d="M11.5 1C16.1941 1 20 4.69892 20 9.26115C20.0031 11.235 19.7013 12.6025 18.547 14.3964C17.3935 16.1903 11.5 23 11.5 23C11.5 23 5.60648 16.1903 4.45297 14.3964C3.29947 12.6025 2.99768 11.235 3.00001 9.26115C3.00001 4.69892 6.80587 1 11.5 1Z" stroke="#0061D9" stroke-width="2" stroke-miterlimit="10"/>
</g>
<defs>
<clipPath id="clip0_264_6612">
<rect width="24" height="24" fill="white"/>
</clipPath>
</defs>
</svg>
