<svg width="48" height="40" fill="none" xmlns="http://www.w3.org/2000/svg"><path d="M31 20v2M31 8v10M30.5 1C39.613 1 47 7.044 47 14.5c0 3.779-1.902 7.19-4.96 9.641-.069 1.865.102 4.63.904 6.907.299.85-.54 1.688-1.377 1.355-2.722-1.08-5.144-3.12-6.872-4.861a19.892 19.892 0 01-4.196.458c-9.113 0-16.5-6.044-16.5-13.5C14 7.044 21.387 1 30.5 1z" stroke="#0061D9" stroke-width="2" stroke-miterlimit="10"/><path d="M26.367 31.025C23.687 32.883 20.248 34 16.5 34c-1.328 0-2.609-.155-3.838-.418-1.664 1.798-3.829 3.73-6.229 4.811-.838.378-1.676-.575-1.377-1.54.628-2.028.866-4.388.908-6.337C2.917 28.142 1 24.763 1 21c0-5.72 4.405-10.577 10.524-12.316" stroke="#0061D9" stroke-width="2" stroke-miterlimit="10" stroke-linecap="round"/></svg>