<svg width="40" height="44" fill="none" xmlns="http://www.w3.org/2000/svg"><path d="M20 34a3 3 0 100-6 3 3 0 000 6zM25.184 8.248c-2.964-1.929-6.978-1.77-9.797.351-2.091 1.573-3.293 3.543-3.387 5.84 0 1.066 1.119 1.932 2.5 1.932 1.38 0 2.276-.932 2.58-1.82.304-.889.892-1.56 1.792-2.106a3.22 3.22 0 013.396.071c1.693 1.12 1.822 3.372.445 4.702C21.092 18.784 17 19.513 17 22.102v.967c0 1.067 1.119 1.933 2.5 1.933 1.38 0 1.987-1.296 3.139-2.263 1.152-.967 2.625-.832 3.801-1.919 3.766-3.484 3.298-9.609-1.256-12.572z"/><path d="M20 1C9.507 1 1 9.507 1 20c0 4.864 1.843 9.287 4.85 12.648-.519 3.362-1.299 6.771-1.889 8.728a1 1 0 001.177 1.267c1.981-.455 5.682-2.734 8.744-4.668A18.945 18.945 0 0020 39c10.493 0 19-8.507 19-19S30.493 1 20 1z"/></svg>