<svg width="47" height="47" fill="none" xmlns="http://www.w3.org/2000/svg"><path d="M10 33c-2.363 0-4-1.919-4-4.286v-1.429C6 24.918 7.637 23 10 23s4 1.918 4 4.285v1.429C14 31.081 12.363 33 10 33zM1 46c.569-3.213 1.222-6.453 1.222-6.453.476-2.769 2.565-3.93 4.279-3.93H7.54c1.974 0 2.999 1.872 3.709 2.923.71 1.052 1.71 2.48 1.71 2.48l4.344.672c2.499.53 2.204 4.251-.35 4.306L10.655 46l-3.423-3.24M9 46h33M22.375 43h9.04L37 33H20.586l-3.185 5.702M14 14c0-7.18 7.164-13 16-13s16 5.82 16 13-7.164 13-16 13c-1.813 0-3.55-.257-5.175-.708l-6.432 3.531.448-6.516C15.858 20.946 14 17.651 14 14z"/></svg>