<svg width="49" height="48" fill="none" xmlns="http://www.w3.org/2000/svg"><path d="M40.117 29.636h-1c-2.544 0-6.797-3.43-6.797-3.43M15.707 41s-3.798 1.284-5.59-1.364c1.015-1.691 5-9 5-9l9-6 3.336.344M11.3 46.91l5.443-2.65 2.19-2.624"/><path d="M23.117 36.636l14.75-17a2.127 2.127 0 00-3.178-2.83L17.072 36.705"/><path d="M29.118 31.636v2c0 1.529-1.471 3-3 3h-8c-1.308 0-2.944.787-2.944 2.478 0 1.69.944 2.522 2.944 2.522h7c1.756 1.55 2.804 3 5 3h3c.934 0 2.257-.456 3.155-.712.898-.257 1.91-.288 2.845-.288h1"/><path d="M47.117 27.636h-7v17h7v-17zM22.117 42.636v.199c0 1.206 1.351 1.8 3.04 1.8h-.048c1.1 0 2.043-.252 2.567-.761M17.307 43.635c.362.669 1.214 1 2.293 1h-.051c1.446 0 2.568-.595 2.568-1.8v-.2M12.932 41.453l-.626.714L11.3 46.91M22.117 42.636v-1M24.885 9.202a3.916 3.916 0 00-6.058 4.42l3.45 2.611a3.917 3.917 0 002.608-7.031z"/><path d="M26.461 7.12a6.528 6.528 0 00-9.144 1.266 6.522 6.522 0 00-.805 6.473l-.8 2.136 4.165 3.151 1.84-1.348a6.522 6.522 0 006.01-2.534 6.526 6.526 0 00-1.266-9.143zM6.544 3.71a3.89 3.89 0 013.81 6.401l-4.17 1.04a3.89 3.89 0 01.36-7.44z"/><path d="M5.916 1.194a6.484 6.484 0 017.86 4.723 6.478 6.478 0 01-1.787 6.228l-.104 2.263-5.033 1.255-1.154-1.95a6.477 6.477 0 01-4.503-4.658 6.483 6.483 0 014.721-7.86z"/><path d="M10.833 17.267c-.014 1.192-.7 2.147-1.53 2.133-.83-.013-1.493-.991-1.479-2.182.015-1.192.7-2.147 1.53-2.133.831.014 1.494.99 1.479 2.182zM18.037 18.978c-.778-.285-1.742.393-2.153 1.515-.41 1.121-.112 2.262.667 2.547.779.285 1.743-.393 2.153-1.515.41-1.122.112-2.262-.667-2.547z"/><path d="M16.212 23.178c-.062-.826-1.077-1.424-2.268-1.335-1.19.09-2.105.833-2.043 1.66.062.827 1.078 1.424 2.268 1.335 1.191-.09 2.106-.833 2.043-1.66z"/><path d="M12.01 20.597c-.53-1.065-1.562-1.635-2.307-1.272-.745.363-.92 1.521-.392 2.587.529 1.065 1.562 1.634 2.307 1.272.746-.364.921-1.522.392-2.587z"/></svg>