<svg width="41" height="47" fill="none" xmlns="http://www.w3.org/2000/svg"><path d="M11 34c-2.363 0-4-1.919-4-4.286v-1.429C7 25.918 8.637 24 11 24s4 1.918 4 4.285v1.429C15 32.081 13.363 34 11 34zM2 46l2-8c.604-2.5 1.8-4 4-4h1.091a2 2 0 011.507.685L16.981 42h6s.447 4-3 4H14l-5-5"/><path d="M18 39l4-7h18l-6 11h-9M10 46h30M17.001 24h3v3.879c0 .973 1.248 1.373 1.813.582L25.001 24h10a2 2 0 002-2V2.998A1.999 1.999 0 0035.003 1H2.998A1.999 1.999 0 001 2.998V22a2 2 0 002 2h2"/><path d="M11 17l5-5 3 3 7-7"/><path d="M21 8h5v5"/></svg>