<svg width="48" height="45" fill="none" xmlns="http://www.w3.org/2000/svg"><path d="M32 20.959v-4c0-2.757-5.678-4-8.5-4-2.823 0-8.5 1.243-8.5 4v4M23.5 9.974c2.104 0 3.5-1.722 3.5-3.846V4.846C27 2.722 25.604 1 23.5 1S20 2.722 20 4.846v1.282c0 2.124 1.396 3.846 3.5 3.846zM8.5 12.959c-2.104 0-3.5-1.727-3.5-3.856V7.817C5 5.687 6.396 3.96 8.5 3.96S12 5.688 12 7.817v1.286c0 2.129-1.396 3.856-3.5 3.856z" stroke="#0061D9" stroke-width="2" stroke-miterlimit="10"/><path d="M15 43.959l-3-9H6c-2.75 0-5-2.25-5-5v-11c0-1.65 1.35-3 3-3h3l5 5h6s.447 4-3 4H9l-4-4" stroke="#0061D9" stroke-width="2" stroke-miterlimit="10"/><path d="M8 23.959v5h4.319c1.602 0 3.152.488 3.681 2l4 13M40.5 12.959c2.104 0 3.5-1.727 3.5-3.856V7.817c0-2.13-1.396-3.857-3.5-3.857S37 5.688 37 7.817v1.286c0 2.129 1.396 3.856 3.5 3.856zM33 43.959l3-9h6c2.75 0 5-2.25 5-5v-11c0-1.65-1.35-3-3-3h-3l-5 5h-6s-.447 4 3 4h6l4-4" stroke="#0061D9" stroke-width="2" stroke-miterlimit="10"/><path d="M40 23.959v5h-4.319c-1.602 0-3.152.488-3.681 2l-4 13M11 24.959h26" stroke="#0061D9" stroke-width="2" stroke-miterlimit="10"/></svg>