<svg width="24" height="24" fill="none" xmlns="http://www.w3.org/2000/svg"><path d="M23 9.499L21.547 5.99l-2.134.711a9.044 9.044 0 00-2.114-2.11l.71-2.138L14.503 1l-1.008 2.014a9.063 9.063 0 00-2.989-.003L9.5 1 5.991 2.453l.711 2.134a9.061 9.061 0 00-2.111 2.114L2.453 5.99 1 9.5l2.014 1.008a9.062 9.062 0 00-.003 2.988L1 14.5l1.453 3.508 2.134-.71a9.061 9.061 0 002.114 2.111l-.711 2.137L9.498 23l1.007-2.014c.976.163 1.983.17 2.988.003L14.499 23l3.508-1.453-.71-2.134a9.062 9.062 0 002.112-2.114l2.137.71 1.453-3.507-2.014-1.008c.163-.976.17-1.983.002-2.988L23 9.499z" stroke="#009DB2" stroke-width="2" stroke-miterlimit="10" stroke-linejoin="round"/><path d="M12 16a4 4 0 100-8 4 4 0 000 8z" stroke="#009DB2" stroke-width="2" stroke-miterlimit="10" stroke-linejoin="round"/></svg>