<svg width="24" height="24" fill="none" xmlns="http://www.w3.org/2000/svg"><path d="M13.494 3.014a9.063 9.063 0 00-2.989-.003L9.5 1 5.991 2.453l.711 2.134a9.061 9.061 0 00-2.111 2.114L2.453 5.99 1 9.5l2.014 1.008a9.062 9.062 0 00-.003 2.988L1 14.5l1.453 3.508 2.134-.71a9.061 9.061 0 002.114 2.111l-.711 2.137L9.498 23l1.007-2.014c.976.163 1.983.17 2.988.003L14.499 23l3.508-1.453-.71-2.134a9.062 9.062 0 002.112-2.114l2.137.71 1.453-3.507-2.014-1.008c.163-.976.17-1.983.002-2.988" stroke="#009DB2" stroke-width="2" stroke-miterlimit="10" stroke-linecap="round" stroke-linejoin="round"/><path d="M20 2l-7 7-3-3-3 3 6 6L23 5l-3-3z" stroke="#009DB2" stroke-width="2" stroke-miterlimit="10" stroke-linejoin="round"/></svg>