<svg width="24" height="24" fill="none" xmlns="http://www.w3.org/2000/svg"><path d="M1 23v-4.5c0-2.137 3.87-3.77 7-4.309" stroke="#65B94D" stroke-width="2" stroke-miterlimit="10" stroke-linecap="round" stroke-linejoin="round"/><path d="M10 11c2.33 0 4-1.8 4-4.167V5.167C14 2.8 12.33 1 10 1 7.669 1 6 2.8 6 5.167v1.666C6 9.2 7.669 11 10 11z" stroke="#65B94D" stroke-width="2" stroke-miterlimit="10" stroke-linejoin="round"/><path d="M7 23a11.562 11.562 0 013.09-5.576L20.103 7.412a1.406 1.406 0 011.988 0l.497.497c.55.548.55 1.439 0 1.987L12.576 19.91A11.555 11.555 0 017 23z" stroke="#65B94D" stroke-width="2" stroke-miterlimit="10" stroke-linecap="round" stroke-linejoin="round"/><path d="M19 10l2.636 3c.485.552.485 1.448 0 2L19 18M12 16l2 2" stroke="#65B94D" stroke-width="2" stroke-miterlimit="10" stroke-linecap="round" stroke-linejoin="round"/></svg>