<svg width="48" height="40" fill="none" xmlns="http://www.w3.org/2000/svg"><path d="M18 20v2M15 12c0-1.779 1.221-3 3-3 1.741 0 3 1.258 3 3 0 1.019-.742 2.097-1.48 2.688-1.21.967-1.52 1.764-1.52 3.313" stroke="#0061D9" stroke-width="2" stroke-miterlimit="10"/><path d="M17.5 1C8.387 1 1 7.044 1 14.5c0 3.779 1.902 7.19 4.96 9.641.069 1.865-.102 4.63-.904 6.907-.299.85.54 1.688 1.377 1.355 2.722-1.08 5.144-3.12 6.872-4.861 1.342.289 2.743.458 4.196.458 9.113 0 16.5-6.044 16.5-13.5C34 7.044 26.613 1 17.5 1z" stroke="#0061D9" stroke-width="2" stroke-miterlimit="10"/><path d="M21.633 31.025C24.313 32.883 27.752 34 31.5 34c1.328 0 2.609-.155 3.838-.418 1.664 1.798 3.829 3.73 6.229 4.811.838.378 1.676-.575 1.377-1.54-.628-2.028-.866-4.388-.908-6.337C45.083 28.142 47 24.763 47 21c0-5.72-4.405-10.577-10.524-12.316" stroke="#0061D9" stroke-width="2" stroke-miterlimit="10" stroke-linecap="round"/></svg>