<svg width="44" height="48" fill="none" xmlns="http://www.w3.org/2000/svg"><g clip-path="url(#clip0)" fill="#882C80"><path d="M43.645 15.983c-.253-2.451-2.078-5.668-4.004-7.149 0 0-2.94-2.196-6.59-4.34A65.794 65.794 0 0026.055.766C24.94.256 23.47 0 22.051 0c-1.47 0-2.94.255-4.005.766 0 0-3.295 1.48-6.995 3.677-3.65 2.195-6.59 4.34-6.59 4.34C2.484 10.263.71 13.481.456 15.932c0 0-.405 3.676-.405 8.068 0 4.34.405 8.068.405 8.068.254 2.451 2.079 5.668 4.005 7.149 0 0 2.94 2.196 6.59 4.392a70.982 70.982 0 006.995 3.676c1.115.51 2.585.766 4.005.766 1.47 0 2.94-.255 4.004-.766 0 0 3.295-1.48 6.996-3.676 3.65-2.196 6.59-4.392 6.59-4.392 1.977-1.48 3.75-4.698 4.004-7.149 0 0 .406-3.676.406-8.068 0-4.34-.406-8.017-.406-8.017zm-2.027 15.83c-.203 1.94-1.724 4.595-3.194 5.719-.05 0-2.89 2.145-6.387 4.238-3.498 2.094-6.742 3.575-6.793 3.575-.81.357-1.977.561-3.193.561-1.217 0-2.383-.204-3.194-.561-.05 0-3.244-1.481-6.792-3.575-3.498-2.093-6.387-4.238-6.387-4.238-1.521-1.123-2.991-3.83-3.194-5.72 0-.05-.355-3.625-.355-7.812s.355-7.813.355-7.813c.203-1.94 1.723-4.596 3.194-5.719.05 0 2.889-2.145 6.387-4.238 3.497-2.094 6.742-3.575 6.792-3.575.811-.408 1.977-.612 3.194-.612 1.216 0 2.382.204 3.193.561.051 0 3.245 1.481 6.793 3.575a87.04 87.04 0 016.387 4.238c1.52 1.123 2.99 3.83 3.194 5.72 0 .05.354 3.625.354 7.812.051 4.238-.304 7.864-.354 7.864z"/><path d="M26.46 12.613c-.354-.358-.861-.562-1.419-.562h-9.986c-1.115 0-2.027.92-2.027 2.043v18.893c0 1.124.912 2.043 2.027 2.043H29.35c1.115 0 2.028-.92 2.028-2.043V18.281c0-.562-.203-1.072-.608-1.481l-4.31-4.187zm2.89 5.668h-3.599a.673.673 0 01-.659-.664v-3.421l4.258 4.085zM15.055 32.987V14.094h8.01v3.523c0 1.48 1.216 2.706 2.686 2.706h3.6v12.664H15.054z"/><path d="M25.65 22.11a.975.975 0 00-1.42 0l-5.83 5.822a.992.992 0 000 1.43.997.997 0 00.71.306.997.997 0 00.71-.306L25.6 23.54a1.04 1.04 0 00.05-1.43zM24.99 29.72c.729 0 1.319-.595 1.319-1.328 0-.734-.59-1.328-1.318-1.328-.728 0-1.318.594-1.318 1.328 0 .733.59 1.327 1.318 1.327zM19.415 24.255c.727 0 1.318-.594 1.318-1.327 0-.734-.59-1.328-1.318-1.328-.728 0-1.318.594-1.318 1.328 0 .733.59 1.327 1.318 1.327z"/></g><defs><clipPath id="clip0"><path fill="#fff" d="M0 0h44v48H0z"/></clipPath></defs></svg>