<svg width="44" height="48" fill="none" xmlns="http://www.w3.org/2000/svg"><g clip-path="url(#clip0)" fill="#65B94D"><path fill-rule="evenodd" clip-rule="evenodd" d="M43.594 15.932c-.253-2.451-2.078-5.668-4.004-7.149 0 0-2.94-2.196-6.59-4.34C29.35 2.247 26.005.766 26.005.766 24.889.256 23.419 0 22 0c-1.47 0-2.94.255-4.005.766 0 0-3.295 1.48-6.995 3.677-3.65 2.195-6.59 4.34-6.59 4.34C2.433 10.263.66 13.481.406 15.932c0 0-.406 3.676-.406 8.068 0 4.34.406 8.068.406 8.068.253 2.451 2.078 5.668 4.004 7.149 0 0 2.94 2.196 6.59 4.392 3.65 2.195 6.995 3.676 6.995 3.676 1.116.51 2.586.766 4.005.766 1.47 0 2.94-.255 4.005-.766 0 0 3.294-1.48 6.995-3.676 3.65-2.196 6.59-4.392 6.59-4.392 1.977-1.48 3.751-4.698 4.004-7.149 0 0 .406-3.676.406-8.068 0-4.34-.406-8.068-.406-8.068zm-2.027 15.88c-.203 1.941-1.724 4.596-3.194 5.72-.05 0-2.89 2.145-6.387 4.238-3.498 2.094-6.742 3.575-6.793 3.575-.81.357-1.976.561-3.193.561s-2.383-.204-3.194-.561c-.05 0-3.244-1.481-6.792-3.575-3.498-2.093-6.387-4.238-6.387-4.238-1.521-1.123-2.991-3.83-3.194-5.72-.05 0-.405-3.625-.405-7.812s.354-7.813.354-7.813c.203-1.94 1.724-4.596 3.194-5.719.05 0 2.89-2.145 6.387-4.238 3.498-2.094 6.742-3.575 6.793-3.575.861-.408 2.027-.612 3.244-.612s2.383.204 3.194.561c.05 0 3.244 1.481 6.792 3.575a87.03 87.03 0 016.387 4.238c1.521 1.123 2.991 3.83 3.194 5.72 0 .05.355 3.625.355 7.812.05 4.238-.355 7.864-.355 7.864z"/><path fill-rule="evenodd" clip-rule="evenodd" d="M31.733 16.851v-2.196c0-.868-.355-1.634-.963-2.144-.66-.511-1.521-.715-2.484-.511l-15.36 1.787c-2.534.307-3.041 1.481-3.041 2.451v15.37c0 1.481 1.216 2.707 2.686 2.707H31.53c1.47 0 2.687-1.226 2.687-2.706V19.556a2.796 2.796 0 00-2.484-2.706zm.405 10.57h-4.967a2.041 2.041 0 01-2.028-2.042c0-1.124.912-2.043 2.027-2.043h4.968v4.085zM13.13 15.881l15.46-1.787h.102c.355-.102.66-.051.811.102.152.102.203.306.203.562v2.144H12.42c-.305 0-.406-.102-.558-.357v-.154c0-.204.253-.408 1.267-.51zm18.35 16.493H12.521a.674.674 0 01-.66-.663V18.843c.254.05.457.05.71.05H31.48c.355 0 .66.307.66.665v1.787H27.17c-2.23 0-4.056 1.838-4.056 4.085s1.825 4.085 4.056 4.085h4.967v2.247c0 .306-.304.612-.659.612z"/><path d="M27.221 26.451c.588 0 1.065-.48 1.065-1.072 0-.593-.477-1.073-1.065-1.073s-1.064.48-1.064 1.073c0 .592.476 1.072 1.064 1.072z"/></g><defs><clipPath id="clip0"><path fill="#fff" d="M0 0h44v48H0z"/></clipPath></defs></svg>