<svg width="40" height="44" fill="none" xmlns="http://www.w3.org/2000/svg"><path d="M7 21V3a2 2 0 012-2h22l8 8v32a2 2 0 01-2 2H9a2 2 0 01-2-2v-5" fill="#fff"/><path d="M7 21V3a2 2 0 012-2h22l8 8v32a2 2 0 01-2 2H9a2 2 0 01-2-2v-5" stroke="#D9D9DE" stroke-width="2" stroke-miterlimit="10"/><path d="M36 10h-6V4" stroke="#D9D9DE" stroke-width="2" stroke-miterlimit="10"/><path d="M27.931 36H2.069C.927 36 0 35.104 0 34V23c0-1.104.927-2 2.069-2h25.862c1.142 0 2.069.896 2.069 2v11c0 1.104-.927 2-2.069 2z" fill="#0061D9"/><path d="M7.438 32.144c-.832 0-1.492-.268-1.98-.804-.48-.544-.72-1.364-.72-2.46v-.24c0-1.024.244-1.804.732-2.34.488-.536 1.144-.804 1.968-.804.432 0 .812.096 1.14.288.336.184.608.428.816.732V23.6h1.584V32H9.502v-.936c-.16.288-.412.54-.756.756-.344.216-.78.324-1.308.324zM7.81 30.8c.472 0 .852-.136 1.14-.408.296-.28.444-.704.444-1.272v-.72c0-.52-.152-.908-.456-1.164-.296-.264-.672-.396-1.128-.396-.432 0-.784.152-1.056.456-.272.296-.408.744-.408 1.344v.24c0 .648.14 1.132.42 1.452.28.312.628.468 1.044.468zm7.491 1.344c-.432 0-.844-.064-1.236-.192a2.822 2.822 0 01-1.008-.612 2.897 2.897 0 01-.684-1.02c-.168-.408-.252-.888-.252-1.44v-.24c0-.52.084-.976.252-1.368a2.82 2.82 0 01.684-.984c.288-.264.624-.46 1.008-.588a3.744 3.744 0 011.236-.204c.432 0 .84.068 1.224.204.384.128.72.324 1.008.588.296.264.528.592.696.984.168.392.252.848.252 1.368v.24c0 .544-.084 1.02-.252 1.428a2.82 2.82 0 01-.696 1.02 2.822 2.822 0 01-1.008.612 3.64 3.64 0 01-1.224.204zm0-1.344c.448 0 .82-.16 1.116-.48.304-.32.456-.8.456-1.44v-.24c0-.584-.152-1.028-.456-1.332a1.474 1.474 0 00-1.116-.468c-.456 0-.832.156-1.128.468-.296.304-.444.748-.444 1.332v.24c0 .648.148 1.132.444 1.452.296.312.672.468 1.128.468zm7.135 1.344c-.44 0-.852-.068-1.235-.204a2.724 2.724 0 01-.985-.612c-.28-.272-.5-.612-.66-1.02-.16-.408-.24-.884-.24-1.428v-.24c0-.512.085-.964.253-1.356.168-.392.392-.72.672-.984a2.94 2.94 0 01.995-.6 3.5 3.5 0 011.2-.204 3.6 3.6 0 011.189.18c.352.12.648.284.887.492.24.208.428.452.564.732.136.28.216.58.24.9H23.71a1.21 1.21 0 00-.396-.696c-.192-.176-.485-.264-.877-.264a1.6 1.6 0 00-.587.108 1.379 1.379 0 00-.48.336 1.551 1.551 0 00-.325.552c-.08.224-.12.492-.12.804v.24c0 .336.037.628.108.876.08.24.189.44.325.6.136.152.296.264.48.336.183.072.384.108.6.108.311 0 .58-.08.803-.24.233-.168.389-.408.469-.72h1.608c-.04.352-.14.672-.3.96-.152.28-.357.52-.613.72-.247.2-.54.356-.875.468-.337.104-.7.156-1.093.156z" fill="#fff"/></svg>