<svg width="20" height="20" xmlns="http://www.w3.org/2000/svg"><path d="M14.042 0H5.958A5.965 5.965 0 000 5.958v8.084A5.965 5.965 0 005.958 20h8.084A5.965 5.965 0 0020 14.042V5.958A5.965 5.965 0 0014.042 0zm3.946 14.042a3.946 3.946 0 01-3.946 3.946H5.958a3.946 3.946 0 01-3.946-3.946V5.958a3.946 3.946 0 013.946-3.946h8.084a3.946 3.946 0 013.946 3.946v8.084z"/><path d="M10 4.827A5.179 5.179 0 004.829 10a5.179 5.179 0 005.173 5.172A5.178 5.178 0 0015.174 10 5.178 5.178 0 0010 4.827zm0 8.334a3.16 3.16 0 110-6.322 3.16 3.16 0 010 6.322zm5.185-7.055a1.24 1.24 0 100-2.479 1.24 1.24 0 000 2.479z"/></svg>