<svg width="40" height="44" fill="none" xmlns="http://www.w3.org/2000/svg"><path d="M20 1C9.507 1 1 9.507 1 20c0 4.864 1.843 9.287 4.85 12.648-.519 3.362-1.299 6.771-1.889 8.728a1 1 0 001.177 1.267c1.981-.455 5.682-2.734 8.744-4.668A18.945 18.945 0 0020 39c10.493 0 19-8.507 19-19S30.493 1 20 1z"/><path d="M32 17.272l-1.585-3.827-2.329.776a9.865 9.865 0 00-2.306-2.303l.776-2.332L22.729 8l-1.1 2.197a9.89 9.89 0 00-3.26-.003L17.273 8l-3.827 1.585.776 2.329a9.886 9.886 0 00-2.304 2.306l-2.331-.777L8 17.272l2.197 1.1a9.889 9.889 0 00-.003 3.26L8 22.728l1.585 3.827 2.329-.775a9.885 9.885 0 002.306 2.304l-.777 2.331L17.27 32l1.099-2.197a9.886 9.886 0 003.26.003L22.727 32l3.826-1.585-.774-2.329a9.887 9.887 0 002.303-2.306l2.331.776 1.585-3.827-2.197-1.1a9.887 9.887 0 00.003-3.26L32 17.273z"/><path d="M20 23.976a3.976 3.976 0 100-7.953 3.976 3.976 0 000 7.953z"/></svg>