<svg width="45" height="47" fill="none" xmlns="http://www.w3.org/2000/svg"><path d="M14.965 18c4.069 0 6.982-2.94 6.982-7.2V8.2c0-4.26-2.913-7.2-6.982-7.2-4.069 0-6.983 2.94-6.983 7.2v2.6c0 4.26 2.914 7.2 6.983 7.2zM24 20.281C21.072 18.728 17.456 18 14.965 18 10.114 18 1 20.76 1 27v8m16 11a19.51 19.51 0 015.215-9.41l16.896-16.895a2.373 2.373 0 013.356 0l.838.838a2.372 2.372 0 010 3.355L26.41 40.784A19.498 19.498 0 0117 46z"/><path d="M36.594 22.212l5.032 5.032a2.372 2.372 0 010 3.355l-5.032 5.033M26.285 32.52l4.193 4.195"/></svg>