<svg width="46" height="50" fill="none" xmlns="http://www.w3.org/2000/svg"><path d="M36.807 12.337l-1.084-2.616-1.592.53a6.728 6.728 0 00-1.576-1.574l.53-1.593L30.47 6l-.752 1.502A6.745 6.745 0 0027.49 7.5L26.74 6l-2.616 1.084.53 1.591a6.75 6.75 0 00-1.575 1.577l-1.593-.531-1.084 2.616 1.502.751a6.75 6.75 0 00-.002 2.229l-1.5.751 1.084 2.615 1.592-.53a6.751 6.751 0 001.576 1.575l-.53 1.593 2.615 1.083.752-1.501a6.772 6.772 0 002.228.001l.751 1.5 2.615-1.083-.529-1.592a6.747 6.747 0 001.574-1.576l1.593.53 1.084-2.615-1.502-.752a6.745 6.745 0 00.002-2.228l1.5-.751z"/><path d="M28.71 17.005a2.699 2.699 0 100-5.398 2.699 2.699 0 000 5.398zm-18.28-1.468l-8.7 2.703M11 10.124l-7.89 2.451a3 3 0 00-1.974 3.755l9.495 30.559a3 3 0 003.755 1.975l14.325-4.451a3.001 3.001 0 001.975-3.755L27.57 30.629M19.226 44.22l2.865-.89m-12.351.694l20.055-6.23"/><path d="M29.001 1c-8.836 0-16 6.596-16 13.5 0 2.729 1.131 6.245 3.03 8.3-.273 2.122-.796 4.35-1.627 6.427-.309.771.371 1.576 1.175 1.38 3.457-.841 6.042-2.069 7.933-3.377 1.714.49 3.558.771 5.489.771 8.836 0 16-6.596 16-13.5S37.837 1 29.001 1z"/></svg>