<svg width="48" height="48" fill="none" xmlns="http://www.w3.org/2000/svg"><path d="M40 29.636h-1c-2.544 0-6.797-3.43-6.797-3.43M15.59 41s-3.798 1.284-5.59-1.364c1.015-1.691 5-9 5-9l9-6 3.336.344M11.184 46.91l5.442-2.65 2.19-2.624"/><path d="M23 36.636l14.75-17a2.127 2.127 0 00-3.178-2.83L16.955 36.705"/><path d="M29 31.636v2c0 1.529-1.47 3-3 3h-8c-1.307 0-2.943.787-2.943 2.478 0 1.69.944 2.522 2.944 2.522h7c1.756 1.55 2.804 3 5 3h3c.934 0 2.257-.456 3.155-.712.898-.257 1.91-.288 2.845-.288h1"/><path d="M47 27.636h-7v17h7v-17zm-25 15v.199c0 1.206 1.351 1.8 3.039 1.8h-.047c1.099 0 2.043-.252 2.567-.761m-10.369-.239c.361.669 1.213 1 2.292 1h-.05c1.446 0 2.568-.595 2.568-1.8v-.2m-9.185-1.182l-.626.714-1.005 4.743M22 42.636v-1m5-20.637v-3H1v3l6 6m0 3v-8m15-4v-4c0-2.448-6.087-4-8-4-1.914 0-8 1.552-8 4v4m8-8c2.29 0 4-1.727 4-3.856V4.856C18 2.726 16.29 1 14 1s-4 1.727-4 3.856v1.287c0 2.129 1.71 3.856 4 3.856z"/></svg>