<svg width="48" height="47" fill="none" xmlns="http://www.w3.org/2000/svg"><path d="M40 28.636h-1c-2.544 0-6.797-3.43-6.797-3.43M15.59 40s-3.798 1.284-5.59-1.364c1.015-1.691 5-9 5-9l9-6 3.336.344M11.184 45.91l5.442-2.65 2.19-2.624"/><path d="M23 35.636l14.75-17a2.127 2.127 0 00-3.178-2.83L16.955 35.705"/><path d="M29 30.636v2c0 1.529-1.47 3-3 3h-8c-1.307 0-2.943.787-2.943 2.478 0 1.69.944 2.522 2.944 2.522h7c1.756 1.55 2.804 3 5 3h3c.934 0 2.257-.456 3.155-.712.898-.257 1.91-.288 2.845-.288h1"/><path d="M47 26.636h-7v17h7v-17zm-25 15v.199c0 1.206 1.351 1.8 3.039 1.8h-.047c1.099 0 2.043-.252 2.567-.761m-10.369-.239c.361.669 1.213 1 2.292 1h-.05c1.446 0 2.568-.595 2.568-1.8v-.2m-9.185-1.182l-.626.714-1.005 4.743M22 41.636v-1m-6-29.635c1.804 0 3-1.535 3-3.429V6.429C19 4.535 17.804 3 16 3s-3 1.535-3 3.429v1.143c0 1.894 1.196 3.429 3 3.429zm6 7v-4c0-2.478-3.916-3-6-3s-6 .522-6 3v4m15-9c-1.804 0-3-1.535-3-3.429V4.429C22 2.535 23.196 1 25 1s3 1.535 3 3.429v1.143c0 1.894-1.196 3.429-3 3.429z"/><path d="M21 9.654c1.278-.507 2.896-.653 4-.653 2.085 0 6 .522 6 3v2m-24-5c1.804 0 3-1.535 3-3.429V4.429C10 2.535 8.804 1 7 1S4 2.535 4 4.429v1.143c0 1.894 1.196 3.429 3 3.429zm4 .653c-1.278-.507-2.896-.653-4-.653-2.084 0-6 .522-6 3v2"/></svg>