<svg width="46" height="44" fill="none" xmlns="http://www.w3.org/2000/svg"><path d="M13 44v-2.444C13 40.112 9.7 38 7 38s-6 2.111-6 3.556V44m6-15c-2.068 0-4 1.451-4 3.24v2.52C3 36.549 4.932 38 7 38s4-1.451 4-3.24v-2.52C11 30.451 9.068 29 7 29zm22 15v-2.444C29 40.112 25.7 38 23 38s-6 2.111-6 3.556V44" stroke="#0061D9" stroke-width="2" stroke-miterlimit="10"/><path d="M23 29c-2.068 0-4 1.451-4 3.24v2.52c0 1.789 1.932 3.24 4 3.24s4-1.451 4-3.24v-2.52c0-1.789-1.932-3.24-4-3.24zm6-13v-2.444C29 12.112 25.7 10 23 10s-6 2.111-6 3.556V16" stroke="#0061D9" stroke-width="2" stroke-miterlimit="10"/><path d="M23 1c-2.068 0-4 1.612-4 3.601V6.4c0 1.988 1.932 3.601 4 3.601s4-1.612 4-3.601V4.601C27 2.612 25.068 1 23 1zm22 43v-2.444C45 40.112 41.7 38 39 38s-6 2.111-6 3.556V44" stroke="#0061D9" stroke-width="2" stroke-miterlimit="10"/><path d="M39 29c-2.068 0-4 1.451-4 3.24v2.52c0 1.789 1.932 3.24 4 3.24s4-1.451 4-3.24v-2.52c0-1.789-1.932-3.24-4-3.24zM23 16v10m16 0v-5H7v5" stroke="#0061D9" stroke-width="2" stroke-miterlimit="10"/></svg>