<svg width="39" height="46" viewBox="0 0 39 46" fill="none" xmlns="http://www.w3.org/2000/svg">
<path d="M14 36C16.331 36 18 34.367 18 32V30C18 27.633 16.331 26 14 26C11.669 26 10 27.633 10 30V32C10 34.367 11.669 36 14 36Z" stroke="#0061D9" stroke-width="2" stroke-miterlimit="10" stroke-linejoin="round"/>
<path d="M23 45V41C23 37.697 17.126 36 14 36C10.874 36 5 37.697 5 41V45" stroke="#0061D9" stroke-width="2" stroke-miterlimit="10" stroke-linecap="round" stroke-linejoin="round"/>
<path d="M6 29H4C2.343 29 1 27.657 1 26V4C1 2.343 2.343 1 4 1H35C36.657 1 38 2.343 38 4V26C38 27.657 36.657 29 35 29H32L26.79 35.699C26.205 36.451 25 36.037 25 35.085V29H22" stroke="#0061D9" stroke-width="2" stroke-linecap="round" stroke-linejoin="round"/>
<path d="M25 8L18 15L15 12L12 15L18 21L28 11L25 8Z" stroke="#0061D9" stroke-width="2" stroke-miterlimit="10" stroke-linejoin="round"/>
</svg>
