<svg width="48" height="48" fill="none" xmlns="http://www.w3.org/2000/svg"><path d="M17.016 21V11c0-1.105.981-2 2.09-2h1.926" stroke="#0061D9" stroke-width="2" stroke-miterlimit="10" stroke-linecap="round" stroke-linejoin="round"/><path d="M25.049 20V8c0-1.104-.858-2-1.968-2h-.02c-1.109 0-2.03.896-2.03 2v12m8.034 20v-7c1.216-.731 3.335-2.29 4.114-4.999.78-2.709 2.28-4.535 3.762-8.223.38-.949-1.154-1.514-2.177-1.451-2.811.172-4.914 5.029-5.698 5.672M15.008 40v-4.5c0-1.761-2.008-2.736-2.008-5V15c0-1.105.981-2 2.09-2h1.926" stroke="#0061D9" stroke-width="2" stroke-miterlimit="10" stroke-linecap="round" stroke-linejoin="round"/><path d="M25.049 9h2.09c1.108 0 1.926.896 1.926 2v13s-5.02 0-6.024 4m3.012 6s1.755-.288 3.012-1" stroke="#0061D9" stroke-width="2" stroke-miterlimit="10" stroke-linecap="round" stroke-linejoin="round"/><circle cx="24" cy="24" r="23" stroke="#0061D9" stroke-width="2"/></svg>