<svg width="48" height="48" viewBox="0 0 48 48" fill="none" xmlns="http://www.w3.org/2000/svg">
<path d="M17.0161 21V11C17.0161 9.895 17.9971 9 19.1066 9H21.0323" stroke="#0061D9" stroke-width="2" stroke-miterlimit="10" stroke-linecap="round" stroke-linejoin="round"/>
<path d="M25.0485 20V8C25.0485 6.896 24.191 6 23.0815 6H23.0604C21.952 6 21.0312 6.896 21.0312 8V20" stroke="#0061D9" stroke-width="2" stroke-miterlimit="10" stroke-linecap="round" stroke-linejoin="round"/>
<path d="M29.0649 40V33C30.2808 32.269 32.4004 30.71 33.1795 28.001C33.9597 25.292 35.4598 23.466 36.9407 19.778C37.3213 18.829 35.7871 18.264 34.7639 18.327C31.9526 18.499 29.8501 23.356 29.066 23.999" stroke="#0061D9" stroke-width="2" stroke-miterlimit="10" stroke-linecap="round" stroke-linejoin="round"/>
<path d="M15.0081 40V35.5C15.0081 33.739 13 32.764 13 30.5V15C13 13.895 13.981 13 15.0904 13H17.0162" stroke="#0061D9" stroke-width="2" stroke-miterlimit="10" stroke-linecap="round" stroke-linejoin="round"/>
<path d="M25.0486 9H27.1391C28.2475 9 29.0648 9.896 29.0648 11V24C29.0648 24 24.0446 24 23.0405 28" stroke="#0061D9" stroke-width="2" stroke-miterlimit="10" stroke-linecap="round" stroke-linejoin="round"/>
<path d="M26.0527 34C26.0527 34 27.8078 33.712 29.0649 33" stroke="#0061D9" stroke-width="2" stroke-miterlimit="10" stroke-linecap="round" stroke-linejoin="round"/>
<circle cx="24" cy="24" r="23" stroke="#0061D9" stroke-width="2"/>
</svg>
