<svg width="39" height="46" fill="none" xmlns="http://www.w3.org/2000/svg"><path d="M14 36c2.331 0 4-1.633 4-4v-2c0-2.367-1.669-4-4-4s-4 1.633-4 4v2c0 2.367 1.669 4 4 4z" stroke="#0061D9" stroke-width="2" stroke-miterlimit="10" stroke-linejoin="round"/><path d="M23 45v-4c0-3.303-5.874-5-9-5-3.126 0-9 1.697-9 5v4" stroke="#0061D9" stroke-width="2" stroke-miterlimit="10" stroke-linecap="round" stroke-linejoin="round"/><path d="M6 29H4a3 3 0 01-3-3V4a3 3 0 013-3h31a3 3 0 013 3v22a3 3 0 01-3 3h-3l-5.21 6.699c-.585.752-1.79.338-1.79-.614V29h-3" stroke="#0061D9" stroke-width="2" stroke-linecap="round" stroke-linejoin="round"/><path d="M25 8l-7 7-3-3-3 3 6 6 10-10-3-3z" stroke="#0061D9" stroke-width="2" stroke-miterlimit="10" stroke-linejoin="round"/></svg>