<svg width="41" height="47" viewBox="0 0 41 47" fill="none" xmlns="http://www.w3.org/2000/svg">
<path d="M11 34C8.637 34 7 32.081 7 29.714V28.285C7 25.918 8.637 24 11 24C13.363 24 15 25.918 15 28.285V29.714C15 32.081 13.363 34 11 34Z" stroke-width="2" stroke-miterlimit="10"/>
<path d="M2 46L4 38C4.604 35.5 5.8 34 8 34H9.091C9.669 34 10.218 34.25 10.598 34.685L16.981 42H22.981C22.981 42 23.428 46 19.981 46C17.971 46 14 46 14 46L9 41" stroke-width="2" stroke-miterlimit="10" stroke-linecap="round"/>
<path d="M18 39L22 32H40L34 43H25" stroke-width="2" stroke-miterlimit="10" stroke-linejoin="round"/>
<path d="M10 46H40" stroke-width="2" stroke-miterlimit="10" stroke-linecap="round" stroke-linejoin="round"/>
<path d="M17.001 24H20.001V27.879C20.001 28.852 21.249 29.252 21.814 28.461L25.001 24H35.001C36.105 24 37.001 23.104 37.001 22V2.998C37.001 1.895 36.106 1 35.003 1H2.99799C1.89499 1 1 1.895 1 2.998V22C1 23.104 1.896 24 3 24H5" stroke-width="2" stroke-miterlimit="10"/>
<path d="M11 17L16 12L19 15L26 8" stroke-width="2" stroke-miterlimit="10"/>
<path d="M21 8H26V13" stroke-width="2" stroke-miterlimit="10"/>
</svg>
