<svg width="47" height="48" fill="none" xmlns="http://www.w3.org/2000/svg"><path d="M32 27l6-6v-3H8v3l6 6m0 5V22m18 10V22m-1-4v-4c0-2.448-6.087-4-8-4-1.914 0-8 1.552-8 4v4m8-8c2.29 0 4-1.727 4-3.856V4.857c0-2.13-1.71-3.856-4-3.856s-4 1.727-4 3.856v1.287C19 8.273 20.71 10 23 10zm20 37v-1.897C43 42.285 40.792 40 38 40v-1c0-2.817-2.208-5.103-5-5.103S28 36.182 28 39c0-2.817-2.208-5.103-5-5.103S18 36.182 18 39c0-2.817-2.208-5.103-5-5.103S8 36.182 8 39v1c-2.792 0-5 2.284-5 5.103V47" stroke="#0061D9" stroke-width="2" stroke-miterlimit="10"/><path d="M13 47v-1.898C13 42.285 10.792 40 8 40m15 7v-1.898C23 42.285 20.792 40 18 40s-5 2.284-5 5.102V47m20 0v-1.898C33 42.285 30.792 40 28 40s-5 2.284-5 5.102V47m15-7c-2.792 0-5 2.284-5 5.102V47M0 47h47M18 32v-9h10v9" stroke="#0061D9" stroke-width="2" stroke-miterlimit="10"/></svg>