<svg width="48" height="44" fill="none" xmlns="http://www.w3.org/2000/svg"><path d="M16.75 3.492l1.147-1.639a2 2 0 012.785-.49l8.191 5.734a2 2 0 01.491 2.786l-1.147 1.638-2.21-.328-1.148 1.638 1.638 1.147-4.588 6.553-1.639-1.147-1.147 1.638 1.065 1.966-.574.82a1.999 1.999 0 01-2.785.49l-8.19-5.735a2 2 0 01-.492-2.786l.573-.819 2.212.328 1.147-1.638-1.639-1.147 4.59-6.553 1.638 1.147 1.146-1.638-1.064-1.965zm8.11 9.34l-4.096-2.868m-1.639-1.147l-2.456-1.72m3.602 12.289l-4.096-2.869m-1.639-1.147l-2.457-1.72m10.403 6.064l.824.566a5.05 5.05 0 001.65.773c1.87.47 3.898 1.753 5.472 3.003 4.395 3.494 10.68 8.7 11.714 9.423 1.81 1.267 3.228.621 4.178-.737.95-1.358 1.073-2.91-.736-4.178-1.033-.724-8.074-4.85-12.86-7.784-1.714-1.05-3.613-2.519-4.695-4.115a5.034 5.034 0 00-1.29-1.285l-.814-.58M12 33.161H9a1 1 0 00-1 1v3m17 0v-3a1 1 0 00-1-1h-9m0 4h11a1 1 0 011 1v4H6v-4a1 1 0 011-1h5m-3-13v4m-4.5-2.794l2 3.464m-5.294-.17l3.464 2M0 33.161h4" stroke="#0061D9" stroke-width="2" stroke-miterlimit="10"/></svg>