<svg width="24" height="24" fill="none" xmlns="http://www.w3.org/2000/svg"><path d="M15.5 1.444a10.303 10.303 0 00-3-.444C6.701 1 2 5.799 2 11.718a10.8 10.8 0 002.07 6.37C3.216 20.824 1 23 1 23s4.747 0 7.245-1.489c1.302.59 2.74.925 4.255.925 5.799 0 10.5-4.799 10.5-10.718 0-.698-.065-1.38-.19-2.042" stroke="#A7319D" stroke-width="2" stroke-miterlimit="10" stroke-linecap="round" stroke-linejoin="round"/><path d="M20 2l-8 8-3-3-3 3 6 6L23 5l-3-3z" stroke="#A7319D" stroke-width="2" stroke-miterlimit="10" stroke-linejoin="round"/></svg>