<svg width="24" height="24" fill="none" xmlns="http://www.w3.org/2000/svg"><path d="M23 11.718c0 5.92-4.701 10.718-10.5 10.718-1.516 0-2.953-.335-4.255-.925C5.747 23 1 23 1 23s2.216-2.176 3.07-4.912A10.802 10.802 0 012 11.718C2 5.798 6.701 1 12.5 1c1.108 0 2.176.175 3.179.5" stroke="#A7319D" stroke-width="2" stroke-miterlimit="10" stroke-linecap="round" stroke-linejoin="round"/><path d="M7 17a11.562 11.562 0 013.09-5.576L20.103 1.412a1.406 1.406 0 011.988 0l.497.497c.55.548.55 1.439 0 1.987L12.576 13.91A11.555 11.555 0 017 17z" stroke="#A7319D" stroke-width="2" stroke-miterlimit="10" stroke-linecap="round" stroke-linejoin="round"/><path d="M19 4l2.636 3c.485.552.485 1.448 0 2L19 12m-7-2l2 2" stroke="#A7319D" stroke-width="2" stroke-miterlimit="10" stroke-linecap="round" stroke-linejoin="round"/></svg>