<svg width="24" height="24" fill="none" xmlns="http://www.w3.org/2000/svg"><path d="M18.384 5.5a9.083 9.083 0 00-1.085-.909l.71-2.137L14.503 1l-1.008 2.014a9.063 9.063 0 00-2.989-.003L9.5 1 5.991 2.453l.711 2.134a9.061 9.061 0 00-2.111 2.114L2.453 5.99 1 9.5l2.014 1.008a9.062 9.062 0 00-.003 2.988L1 14.5l1.453 3.508 2.134-.71c.278.389.584.751.913 1.086M14.646 9a4 4 0 00-5.768 5.5M7 23a11.562 11.562 0 013.09-5.576L20.103 7.412a1.406 1.406 0 011.988 0l.497.497c.55.548.55 1.439 0 1.987L12.576 19.91A11.555 11.555 0 017 23z" stroke="#009DB2" stroke-width="2" stroke-miterlimit="10" stroke-linecap="round" stroke-linejoin="round"/><path d="M19 10l2.636 3c.485.552.485 1.448 0 2L19 18m-7-2l2 2" stroke="#009DB2" stroke-width="2" stroke-miterlimit="10" stroke-linecap="round" stroke-linejoin="round"/></svg>