<svg width="44" height="48" fill="none" xmlns="http://www.w3.org/2000/svg"><path fill-rule="evenodd" clip-rule="evenodd" d="M43.614 15.956c-.26-2.47-2.07-5.692-4.026-7.158 0 0-2.92-2.191-6.587-4.365C29.332 2.257 26.024.754 26.024.754 24.918.251 23.46 0 22.001 0c-1.46 0-2.92.251-4.025.754 0 0-3.308 1.503-6.976 3.68-3.668 2.173-6.588 4.364-6.588 4.364C2.458 10.264.645 13.485.387 15.956c0 0-.387 3.695-.387 8.044 0 4.35.387 8.045.387 8.045.258 2.47 2.07 5.692 4.024 7.157 0 0 2.921 2.193 6.589 4.369a81.608 81.608 0 006.976 3.676c1.106.502 2.566.753 4.025.753 1.46 0 2.917-.251 4.023-.753 0 0 3.308-1.503 6.976-3.676 3.668-2.176 6.588-4.37 6.588-4.37 1.955-1.464 3.766-4.686 4.026-7.156 0 0 .386-3.694.386-8.045 0-4.35-.386-8.044-.386-8.044zM41.596 31.83c-.202 1.921-1.706 4.6-3.22 5.735a80.798 80.798 0 01-6.405 4.247 80.59 80.59 0 01-6.78 3.574c-.803.364-1.966.572-3.191.572-1.225 0-2.388-.208-3.19-.572a79.94 79.94 0 01-6.781-3.574 79.964 79.964 0 01-6.407-4.248c-1.514-1.135-3.017-3.814-3.22-5.733-.002-.036-.374-3.636-.374-7.83 0-4.182.372-7.793.375-7.83.202-1.919 1.705-4.599 3.22-5.735.029-.02 2.873-2.149 6.406-4.242a79.44 79.44 0 016.78-3.577c.803-.365 1.966-.573 3.191-.573 1.225 0 2.387.208 3.19.573a79.755 79.755 0 016.78 3.578c3.522 2.086 6.378 4.22 6.407 4.241 1.512 1.136 3.017 3.816 3.219 5.736.002.036.374 3.647.374 7.829s-.372 7.794-.374 7.83z" fill="#E77A2B"/><path fill-rule="evenodd" clip-rule="evenodd" d="M33.59 15.97c-1.575-.868-3.463-1.327-5.455-1.327-2.268 0-4.731.635-6.134 2.018-1.404-1.383-3.867-2.018-6.135-2.018-1.994 0-3.88.46-5.456 1.327a1.021 1.021 0 00-.527.895v15.008c0 .36.189.695.497.879.307.183.69.19 1.004.017.976-.538 2.11-.81 3.375-.81 2.62 0 5.26 1.205 6.327 2.147.112.202.283.37.505.457.122.048.246.071.372.071.014 0 .025-.003.038-.004.012.001.025.004.037.004.125 0 .25-.023.371-.07.223-.089.395-.256.506-.458 1.066-.942 3.707-2.147 6.326-2.147 1.264 0 2.4.272 3.376.81.313.173.695.166 1.002-.017.31-.184.498-.519.498-.879V16.865c0-.373-.201-.716-.527-.895zM11.911 30.335V17.497c1.163-.526 2.544-.811 3.955-.811 2.371 0 4.5.828 5.083 1.93v12.947c-1.57-.88-3.798-1.647-6.19-1.647-1.01 0-1.962.141-2.848.419zm20.178 0a9.48 9.48 0 00-2.848-.419c-2.392 0-4.619.766-6.189 1.646V18.616c.582-1.102 2.711-1.93 5.083-1.93 1.411 0 2.792.285 3.954.811v12.838z" fill="#E77A2B"/></svg>