<svg width="24" height="24" fill="none" xmlns="http://www.w3.org/2000/svg"><g clip-path="url(#clip0_264_6612)" stroke="#0061D9" stroke-width="2" stroke-miterlimit="10"><path d="M11.495 6h.01C13.433 6 14.996 7.464 15 9.495c.004 2.03-1.557 3.505-3.484 3.505h-.032C9.557 13 7.997 11.526 8 9.495 8.003 7.464 9.567 6 11.495 6z"/><path d="M11.5 1C16.194 1 20 4.699 20 9.261c.003 1.974-.299 3.341-1.453 5.135C17.393 16.19 11.5 23 11.5 23s-5.894-6.81-7.047-8.604C3.299 12.602 2.998 11.235 3 9.261 3 4.7 6.806 1 11.5 1z"/></g><defs><clipPath id="clip0_264_6612"><path fill="#fff" d="M0 0h24v24H0z"/></clipPath></defs></svg>