<svg width="20" height="20" fill="none" xmlns="http://www.w3.org/2000/svg"><g clip-path="url(#clip0_163:5)"><path fill-rule="evenodd" clip-rule="evenodd" d="M9.785 15.787h1.195s.361-.04.546-.235c.17-.181.165-.517.165-.517s-.023-1.582.722-1.817c.732-.228 1.675 1.53 2.673 2.207.757.51 1.33.398 1.33.398l2.672-.036s1.396-.085.735-1.17c-.054-.085-.387-.799-1.988-2.266-1.675-1.531-1.45-1.284.569-3.934 1.227-1.615 1.719-2.601 1.565-3.022-.146-.403-1.05-.297-1.05-.297l-3.008.02s-.222-.03-.388.067c-.162.095-.264.317-.264.317s-.476 1.25-1.111 2.314c-1.34 2.241-1.875 2.36-2.095 2.22-.509-.325-.382-1.304-.382-2 0-2.173.334-3.079-.65-3.314-.327-.076-.568-.127-1.403-.136-1.074-.01-1.981.002-2.496.252-.342.165-.607.533-.445.554.198.026.648.12.887.44.309.414.298 1.341.298 1.341s.177 2.56-.414 2.877c-.406.217-.963-.228-2.156-2.262-.61-1.042-1.073-2.193-1.073-2.193s-.089-.215-.247-.33a1.255 1.255 0 00-.462-.185l-2.858.018s-.43.012-.587.197c-.14.163-.011.5-.011.5s2.238 5.163 4.77 7.763c2.324 2.387 4.961 2.23 4.961 2.23z" fill="#000"/></g><defs><clipPath id="clip0_163:5"><path fill="#fff" d="M0 0h20v20H0z"/></clipPath></defs></svg>