<svg width="40" height="44" fill="none" xmlns="http://www.w3.org/2000/svg"><path d="M7 21V3a2 2 0 012-2h22l8 8v32a2 2 0 01-2 2H9a2 2 0 01-2-2v-5" fill="#F5F5F7"/><path d="M7 21V3a2 2 0 012-2h22l8 8v32a2 2 0 01-2 2H9a2 2 0 01-2-2v-5" stroke="#D9D9DE" stroke-width="2" stroke-miterlimit="10"/><path d="M36 10h-6V4" stroke="#D9D9DE" stroke-width="2" stroke-miterlimit="10"/><path d="M24.207 36H1.793C.803 36 0 35.104 0 34V23c0-1.104.803-2 1.793-2h22.414c.99 0 1.793.896 1.793 2v11c0 1.104-.803 2-1.793 2z" fill="#0061D9"/><path d="M6.639 28.688l-2.04-3.048h1.764l1.392 2.04 1.368-2.04h1.716l-2.016 2.988L10.959 32H9.183l-1.488-2.376L6.219 32h-1.74l2.16-3.312zm7.384 3.384c-.368 0-.684-.032-.948-.096a1.513 1.513 0 01-.66-.36 1.519 1.519 0 01-.372-.672 4.053 4.053 0 01-.12-1.068V23.6h1.584v6.084c0 .408.06.684.18.828.12.144.352.216.696.216h.228l.192-.024v1.332c-.064.016-.18.024-.348.024a9.278 9.278 0 01-.432.012zm4.38.072c-.52 0-.96-.056-1.32-.168a2.58 2.58 0 01-.863-.444 1.87 1.87 0 01-.492-.636 2.258 2.258 0 01-.204-.756h1.584c.04.208.163.38.372.516.207.128.515.192.924.192.463 0 .796-.064.995-.192.2-.128.3-.292.3-.492a.465.465 0 00-.072-.264.627.627 0 00-.252-.216 1.824 1.824 0 00-.468-.168 9.95 9.95 0 00-.756-.144 6.542 6.542 0 01-.96-.204 2.8 2.8 0 01-.78-.36 1.737 1.737 0 01-.516-.564 1.715 1.715 0 01-.191-.84c0-.264.06-.512.18-.744.12-.232.296-.432.527-.6.232-.176.516-.312.852-.408a3.851 3.851 0 011.14-.156c.457 0 .845.056 1.165.168.327.112.595.264.803.456.209.184.364.396.469.636.104.24.172.488.204.744h-1.585a.885.885 0 00-.372-.528 1.227 1.227 0 00-.683-.18c-.4 0-.689.064-.864.192-.168.12-.252.272-.252.456 0 .096.02.18.06.252a.51.51 0 00.216.192c.111.056.26.108.444.156.192.04.431.08.72.12.36.048.691.12.995.216.313.088.585.208.817.36a1.615 1.615 0 01.744 1.404c0 .288-.06.556-.18.804-.12.24-.3.452-.54.636-.24.176-.54.316-.9.42-.36.096-.78.144-1.26.144z" fill="#fff"/></svg>